<svg width="177" height="163" viewBox="0 0 177 163" fill="none" xmlns="http://www.w3.org/2000/svg">
<path d="M62.8037 4.67917C62.7889 4.2993 62.4833 0.213012 56.0024 0C56.0024 0 59.1887 0.364488 59.7394 1.71002C59.7394 1.71002 57.5697 0.0532529 55.7967 0.582234C54.0237 1.11121 53.0023 4.09102 52.9875 5.06615C52.9727 6.04127 53.9584 9.1974 55.0821 9.46604C55.5293 9.55316 55.9902 9.55316 56.4374 9.46604C56.1173 9.94693 55.8265 10.4452 55.5663 10.9583C52.9789 16.0576 55.6476 21.0409 57.837 20.4906C59.2417 20.1356 59.6384 22.4385 59.6384 22.4385L73.2803 11.8305C73.2803 11.8305 68.2706 1.87688 62.8037 4.67917Z" fill="#2C3A64"/>
<path d="M101.134 65.4345C100.477 64.7735 96.5119 64.927 96.5119 64.927C96.5119 64.927 94.321 64.047 91.6266 62.8574C87.881 61.1827 83.1704 58.9361 82.1414 57.7899C79.7535 55.1249 76.8831 46.1806 74.1887 40.2764C73.9474 39.7259 73.7066 39.1974 73.4661 38.6907C73.4451 38.6349 73.4156 38.5828 73.3787 38.536C73.247 38.2946 73.1326 38.0743 73.0279 37.8763C73.0279 37.854 73.0058 37.8317 72.9836 37.8094C72.4802 36.8402 71.9546 36.0691 71.4721 35.5628V35.5393C70.8813 34.9006 70.3114 34.6357 69.7858 34.8561C69.7858 34.8561 68.7556 35.3846 67.7044 36.641C67.5846 36.7489 67.4813 36.874 67.3979 37.0123C66.6475 37.98 66.0964 39.0883 65.7768 40.2726C65.4623 41.4494 65.3376 42.6693 65.4075 43.8858C65.4949 46.1546 66.6114 48.9966 68.2115 51.8609C68.2755 51.9977 68.3487 52.1301 68.4306 52.257C71.4967 57.655 76.2073 63.0518 79.0765 64.8144C80.961 65.9816 85.6925 66.6859 89.6793 67.0833C92.3294 67.3692 94.6742 67.5016 95.638 67.5672C96.054 68.0302 99.0771 71.5108 100.216 70.4971C101.463 69.4214 101.791 66.0955 101.134 65.4345Z" fill="#ED985F"/>
<path d="M135.287 120.046L121.449 118.996C121.449 118.996 121.117 116.953 121.839 115.404C122.532 113.917 121.579 112.841 120.631 111.071C121.51 111.947 124.539 111.818 126.539 111.557C126.784 111.942 129.252 115.484 130.071 116.054C130.972 116.683 135.009 117.51 135.287 120.046Z" fill="#233862"/>
<path d="M118.376 118.924H103.8C103.8 118.924 103.45 116.753 104.211 115.107C104.941 113.527 106.212 111.83 105.214 109.949C106.139 110.88 109.066 110.778 111.173 110.502C111.431 110.91 110.198 113.583 112.882 115.792C113.778 116.537 118.083 116.228 118.376 118.924Z" fill="#233862"/>
<path d="M116.304 68.6889C116.304 68.6889 111.488 66.8082 104.9 73.3321C92.2524 83.3167 76.0121 108.718 74.4852 110.501C71.4243 114.071 73.7898 119.04 86.2933 118.922C93.6029 118.852 98.0769 115.581 100.081 112.64C100.615 111.856 102.577 108.283 104.979 103.499C104.908 108.305 104.877 111.788 104.877 111.788C104.502 115.194 112.353 114.263 112.353 114.263C125.669 70.8572 116.304 68.6889 116.304 68.6889Z" fill="#060D6D"/>
<path d="M110.187 53.0218C109.456 51.5774 108.089 50.5675 107.059 49.9693C107.491 49.8778 108.057 50.1149 108.057 50.1149C107.504 49.619 105.725 49.3132 105.725 49.3132C99.3893 40.4059 89.6175 51.9421 87.8386 54.9478C86.0596 57.9534 83.8262 61.2889 77.806 61.0553C65.9603 60.5943 65.2073 72.3701 67.6308 78.3886C67.6649 78.4729 73.472 88.6321 73.472 88.6321C74.8378 86.1573 87.1343 75.6514 95.3198 75.7284C98.0686 74.6319 100.972 71.4023 101.199 71.1472C99.0482 73.8085 97.4874 75.0664 96.4468 75.6671C104.229 74.4754 112.126 56.8532 110.187 53.0218Z" fill="#B5453C"/>
<path d="M95.4349 75.7883C95.4561 75.8188 94.401 79.8565 91.2297 78.086C89.1477 76.9232 85.8127 71.9638 87.094 70.2834C87.7063 69.4846 90.4018 67.9699 93.2081 62.8278L93.546 63.1286L99.2103 68.1952C99.2103 68.1952 97.9208 70.1872 96.8386 72.1427C95.9295 73.7829 95.1652 75.3987 95.4349 75.7883Z" fill="#F4A269"/>
<path d="M93.5733 61.5464C93.5733 61.5464 93.6819 57.2324 94.9155 54.3346C95.7964 52.2653 101.152 46.0435 107.176 51.6462C108.394 52.7675 109.353 54.1573 109.982 55.7129C110.774 57.7305 111.446 61.3522 105.236 65.7153L103.32 67.3155L93.5733 61.5464Z" fill="#B5453C"/>
<path d="M85.6816 67.5275C85.6816 67.5275 87.8213 67.9385 88.7253 66.7164C89.6293 65.4942 91.5984 62.9109 92.0583 64.3989C92.5182 65.887 96.8617 70.1925 97.8674 70.306C98.8731 70.4194 99.5751 70.7024 99.0075 71.2281C98.4399 71.7537 98.6758 73.8528 98.107 74.0431C97.5382 74.2334 86.9911 67.4116 85.6816 67.5275Z" fill="#6BB7BF"/>
<path d="M99.2923 70.545C99.2923 70.545 90.9723 65.1316 94.4027 59.9693C97.8331 54.8069 99.0669 50.6316 104.524 53.8705C109.98 57.1093 109.694 59.7653 108.96 61.7685C108.226 63.7717 101.545 71.8205 99.2923 70.545Z" fill="#FFB27D"/>
<path d="M99.2103 74.6949C99.2103 74.6949 84.8497 64.2775 79.8224 68.1975C72.4093 73.985 73.8919 93.5251 72.1697 96.0675C70.4475 98.6099 60.745 116.841 76.5259 118.695C92.3069 120.549 95.9407 110.754 96.6582 103.414C97.3757 96.0747 99.2103 74.6949 99.2103 74.6949Z" fill="#6BB7BF"/>
<path d="M81.0965 75.179C81.0965 75.179 76.9249 97.5268 85.1967 103.629C93.4684 109.731 97.6228 74.4884 81.0965 75.179Z" fill="#599DAD"/>
<path d="M89.0637 70.3506C89.0637 70.3506 89.2212 67.6358 91.5744 68.674C93.9275 69.7122 98.2873 71.2683 99.9692 70.63C101.651 69.9917 97.2559 78.5782 93.2379 75.6982C89.22 72.8182 89.0637 70.3506 89.0637 70.3506Z" fill="#599DAD"/>
<path d="M108.225 56.3582C108.225 56.3582 101.732 60.5236 97.5438 59.2035C93.3555 57.8835 92.446 56.0975 92.446 56.0975C92.446 56.0975 96.6454 55.7925 99.7568 52.7308C99.7618 52.7286 108.452 52.6565 108.225 56.3582Z" fill="#B5453C"/>
<path d="M119.503 85.2662C119.503 85.2662 122.228 86.6854 121.687 90.4284C121.145 94.1715 120.061 92.9181 120.061 92.9181L119.503 85.2662Z" fill="#FFB27D"/>
<path d="M107.179 56.3731C107.179 56.3731 107.993 58.7943 107.509 60.3433C107.026 61.8924 105.347 64.6473 106.224 65.0716C106.224 65.0716 110.836 62.1803 110.463 58.6603C110.07 54.9228 107.179 56.3731 107.179 56.3731Z" fill="#B5453C"/>
<path d="M71.1032 110.41C73.0272 108.142 98.4162 64.4901 108.977 65.0775C124.872 65.9617 97.093 109.545 95.1444 112.431C93.1382 115.403 90.2503 118.851 82.9295 118.922C70.4116 119.041 68.04 114.019 71.1032 110.41Z" fill="#060D6D"/>
<path d="M112.578 68.4374C112.578 68.4374 113.202 69.0135 127.395 112.189C127.395 112.189 121.472 116.435 120.154 113.254C120.154 113.254 101.029 84.8511 105.534 79.8493C110.04 74.8476 112.578 68.4374 112.578 68.4374Z" fill="#060D6D"/>
<path d="M79.5035 69.7715C79.5035 69.7715 75.6819 75.5717 87.5535 80.895C99.4251 86.2183 100.816 87.5167 103.13 87.9911C106.735 88.7313 120.583 88.627 120.583 88.627C120.583 88.627 120.945 86.4659 119.671 85.7366C117.629 84.5668 105.834 82.669 104.243 82.0429C102.651 81.4168 85.7093 63.4859 79.5035 69.7715Z" fill="#ED985F"/>
<path d="M67.6433 154.898L64.9008 155.948C64.9008 155.948 52.9897 138.966 51.5228 124.028C51.2616 121.361 51.3491 118.776 51.9146 116.389L51.5951 114.498C51.5007 113.935 51.3841 113.255 51.2523 112.477C50.8652 110.2 50.3323 107.076 49.7236 103.524C48.3244 95.3474 46.5065 84.8948 45.0956 77.2108L45.8348 76.9711L53.8292 74.3199L55.4815 68.9264L61.4284 67.3156C61.4284 67.3156 62.7588 69.9895 63.947 82.6211C64.1674 84.2787 64.3656 86.1053 64.516 88.0865C65.0635 95.4626 64.8736 102.877 63.9493 110.213C63.6765 112.409 63.3267 114.673 62.8999 117.004C62.5862 118.712 62.5384 121.038 62.6667 123.716C63.2812 135.919 67.6433 154.898 67.6433 154.898Z" fill="#060D6D"/>
<path d="M38.7688 157.013L35.4908 157.323C35.4908 157.323 27.357 136.005 29.9949 119.862C30.4666 116.98 31.294 114.285 32.5847 111.938L32.7733 109.856C32.8302 109.236 32.896 108.487 32.9732 107.63C33.1976 105.122 33.5034 101.681 33.8483 97.7669C34.6441 88.7583 35.6297 77.2336 36.2732 68.74L37.1445 68.702L46.5837 68.2292L49.9073 63.0332L56.8265 63.0616C56.8265 63.0616 57.5148 66.2606 55.2276 79.8954C54.9975 81.7034 54.6955 83.6827 54.2977 85.8108C52.803 93.7303 50.4962 101.476 47.4134 108.927C46.4948 111.159 45.4733 113.439 44.349 115.769C43.5242 117.475 42.8132 119.909 42.1941 122.763C39.4049 135.78 38.7688 157.013 38.7688 157.013Z" fill="#060D6D"/>
<path d="M64.2612 88.0523L51.5079 114.436C51.4147 113.874 51.2997 113.195 51.1697 112.418C50.7877 110.144 50.262 107.025 49.6615 103.477C48.281 95.3108 46.4876 84.8719 45.0956 77.1979L45.8249 76.9585L53.7121 74.3108L55.3422 68.9243L61.2092 67.3156C61.2092 67.3156 62.5218 69.986 63.694 82.6012C63.9172 84.2494 64.1082 86.0736 64.2612 88.0523Z" fill="#233862"/>
<path d="M54.9123 88.103L33.3795 112.154C33.4365 111.534 33.5023 110.785 33.5795 109.928C33.8039 107.42 34.1096 103.979 34.4546 100.065C35.2503 91.0563 36.2359 79.5317 36.8795 71.038L37.7508 71.0001L47.1899 70.5272L50.5136 65.3312L57.4327 65.3596C57.4327 65.3596 58.1211 68.5586 55.8339 82.1935C55.6122 83.9955 55.305 85.9735 54.9123 88.103Z" fill="#233862"/>
<path d="M68.7708 41.1726C67.1773 41.9493 65.2534 42.4778 62.9257 42.6106C54.2006 43.1143 52.22 35.0734 51.86 29.7384C52.8206 29.3885 53.8401 29.2529 54.8533 29.3401C55.4718 29.3761 56.1187 29.4431 56.651 29.5114C57.7133 28.9258 59.6349 26.0796 60.7433 21.3166L61.1198 21.5002L67.4158 24.6119C67.4158 24.6119 66.7465 26.7645 66.2531 28.8302C65.8672 30.4431 65.591 32.0014 65.8223 32.4369C66.3192 32.6491 66.6155 32.7831 66.6155 32.7831C67.587 35.5009 68.3087 38.3102 68.7708 41.1726Z" fill="#FFB27D"/>
<path d="M67.6434 24.6443C67.6434 24.6443 66.9243 26.9525 66.3942 29.1701C62.4401 28.012 61.2405 23.65 60.879 21.3166L67.6434 24.6443Z" fill="#ED985F"/>
<path d="M68.6667 26.9141C68.6667 26.9141 59.6366 24.9172 61.024 19.5617C62.4113 14.2063 62.1813 10.3432 68.0056 11.3914C73.83 12.4396 74.422 14.7465 74.4074 16.6428C74.3929 18.539 71.0504 27.2959 68.6667 26.9141Z" fill="#FFB27D"/>
<path d="M83.181 67.3156C83.181 67.3156 88.9273 67.5577 100.916 78.9972C100.916 78.9972 102.75 81.2979 103.663 81.4589C104.575 81.62 107.052 82.286 107.101 82.9374C107.151 83.5889 104.062 91.7613 100.113 91.995C96.1628 92.2287 77.686 78.1604 78.9823 73.4318C80.2786 68.7033 83.181 67.3156 83.181 67.3156Z" fill="#6BB7BF"/>
<path d="M74.0006 13.4572C73.0204 11.5165 71.8625 11.6194 71.1383 11.9643C66.8497 8.21134 62.6322 11.2769 62.6322 11.2769C61.0111 14.9801 57.4969 16.4845 57.4969 16.4845C57.4969 16.4845 58.9011 17.842 62.9704 17.8119C64.2141 17.8026 65.4639 17.2634 66.601 16.5216C65.1818 17.8399 63.5785 18.969 61.8357 19.8776C66.9294 18.9518 70.3455 13.3877 70.6947 12.7952C71.1273 13.3981 71.9519 14.6792 72.0218 15.7612C72.1161 17.231 71.5806 20.0859 72.4714 20.1947C72.4714 20.1981 75.4747 16.3688 74.0006 13.4572Z" fill="#2C3A64"/>
<path d="M74.4077 40.3047C74.0845 39.3216 71.9267 35.5062 71.9267 35.5062C71.9159 35.4965 70.5535 34.2307 66.7605 32.7238C66.8206 32.9492 68.4425 38.888 67.8418 40.1549C67.2411 41.4438 55.8909 37.2824 55.2698 36.3334C54.7748 35.5708 54.7604 31.5409 54.7748 29.9719C54.7748 29.5808 54.7748 29.342 54.7748 29.342C54.7748 29.342 50.5373 28.7597 48.1548 29.738C48.1548 29.738 49.0955 31.8089 49.4415 34.0955C49.474 34.3124 49.5016 34.5304 49.522 34.7473C49.5695 35.2024 49.5811 35.6607 49.5569 36.1177C49.522 36.7122 49.2205 37.2385 48.7387 37.7526C48.3002 38.2252 47.7042 38.6906 47.0314 39.1889C46.5905 39.5117 46.1171 39.8516 45.6281 40.2182C45.5873 42.9093 45.7747 47.3338 45.2833 52.0556C45.1577 53.2472 44.7696 54.395 44.1479 55.4142C43.9014 55.8207 43.62 56.2043 43.3069 56.5606C40.8043 59.4075 36.3661 65.0819 37.3417 68.6135C37.4126 71.9441 65.1205 76.3199 64.527 72.6629C64.527 72.6629 68.6912 52.3187 70.9403 47.4032C71.0208 47.223 71.0941 47.0475 71.1614 46.8685C71.8823 44.9291 71.7621 42.9361 71.5218 41.1514C72.805 40.2426 74.4077 40.3047 74.4077 40.3047Z" fill="#F99746"/>
<path d="M57.227 66.1933C51.6185 66.1349 46.8706 60.3863 43.9683 55.7916C44.6063 54.7733 45.0045 53.6265 45.1334 52.4359C45.6377 47.7183 45.4454 43.2976 45.4873 40.609C45.9891 40.2438 46.4736 39.903 46.9273 39.5805C47.6177 39.0826 48.2293 38.6177 48.6793 38.1454C53.2706 45.8086 64.8304 66.2737 57.227 66.1933Z" fill="#ED7D2B"/>
<path d="M87.8862 69.7536C87.8862 69.7536 84.3161 67.1688 82.1866 67.6682C80.2939 68.1029 76.25 67.2336 75.4536 67.0577C74.5073 66.5364 73.3676 65.9052 72.1626 65.2104C69.262 63.5585 65.9251 61.5378 63.6458 59.8651C62.3332 58.9091 61.3495 58.0617 61.0002 57.4525C60.4624 56.5185 59.8593 55.0411 59.1873 53.2158C58.8441 52.2598 58.4779 51.2159 58.1129 50.1085C57.4675 48.2831 56.8221 46.3052 56.155 44.3285C54.9464 40.7205 53.6605 37.0919 52.4338 34.2885C51.6385 32.5292 50.8626 31.0726 50.1375 30.1825C49.5562 29.4646 48.9978 29.0958 48.46 29.1825C48.3742 29.2045 48.3089 29.2265 48.2449 29.2472C48.2449 29.2472 45.1473 30.1165 45.1026 36.4179C45.0885 36.7875 45.0957 37.1577 45.1243 37.5265C45.1678 38.6351 45.383 39.9819 45.7056 41.4592C46.2217 43.9365 47.0822 46.8058 48.1578 49.7177C48.4588 50.4992 48.7621 51.305 49.0824 52.1072C51.4053 57.9311 54.4001 63.3631 56.9116 65.2104C57.0069 65.2897 57.1074 65.3623 57.2125 65.4278C58.2664 66.1017 59.8158 66.7708 61.6009 67.4045C64.1389 68.2738 67.1506 69.0564 69.8385 69.7084H69.8603C71.4314 70.0564 72.8721 70.3824 74.0758 70.6205C74.0758 70.6205 74.3344 70.6864 74.7864 70.7731C75.9261 71.0551 78.2708 71.6644 80.4861 72.5337C83.5837 73.7718 85.5186 71.7291 86.8915 71.1431C88.2742 70.5802 87.8862 69.7536 87.8862 69.7536Z" fill="#FFB27D"/>
<path d="M51.8599 34.7289C48.0414 33.4754 45.0956 37.0235 45.0956 37.0235C45.1435 30.1886 48.0024 29.2535 48.0024 29.2535C49.1504 28.6871 50.4879 31.0574 51.8599 34.7289Z" fill="#F99746"/>
<path d="M46.2229 162.679H31.6465C31.6465 162.679 31.2982 160.561 32.0587 158.944C32.7885 157.398 33.9317 156.695 33.6585 154.826C34.5852 155.737 36.0951 156.759 38.2019 156.487C38.4603 156.887 39.8681 159.029 40.7308 159.621C41.682 160.275 45.9313 160.041 46.2229 162.679Z" fill="#233862"/>
<path d="M76.6625 162.679H62.1604C62.1604 162.679 61.618 160.61 62.5694 159.201C63.413 157.955 63.0898 157.246 62.4653 156.215C63.2371 156.514 64.0738 156.654 64.9142 156.627C65.6366 156.589 66.4006 156.298 67.0716 155.948C67.6948 156.584 70.3678 159.294 71.2028 159.831C72.1444 160.441 76.3711 160.223 76.6625 162.679Z" fill="#233862"/>
<path d="M111.611 121.168H58.6242V162.679H111.611V121.168Z" fill="#C6601A"/>
<path d="M137.541 121.168H90.1912V162.679H137.541V121.168Z" fill="#F1A34F"/>
<path d="M99.1796 127.9C98.958 127.906 98.7432 127.976 98.5618 128.103C98.3805 128.23 98.2408 128.407 98.1601 128.613C98.0795 128.818 98.0615 129.043 98.1083 129.259C98.1552 129.474 98.265 129.671 98.4238 129.825C98.5826 129.979 98.7835 130.083 99.0013 130.124C99.2191 130.165 99.4442 130.141 99.6484 130.055C99.8526 129.969 100.027 129.826 100.15 129.642C100.272 129.458 100.338 129.242 100.338 129.022C100.336 128.872 100.305 128.724 100.246 128.587C100.187 128.449 100.101 128.325 99.9933 128.221C99.8857 128.116 99.7583 128.034 99.6187 127.979C99.479 127.924 99.3298 127.897 99.1796 127.9Z" fill="#D3671E"/>
<path d="M129.65 129.051C129.644 128.828 129.705 128.608 129.825 128.42C129.946 128.231 130.12 128.083 130.325 127.994C130.53 127.904 130.758 127.878 130.979 127.917C131.199 127.957 131.403 128.062 131.563 128.217C131.724 128.373 131.835 128.573 131.88 128.791C131.926 129.01 131.906 129.237 131.822 129.443C131.737 129.65 131.593 129.827 131.407 129.952C131.221 130.076 131.002 130.143 130.777 130.143C130.631 130.146 130.486 130.119 130.35 130.066C130.214 130.012 130.09 129.932 129.985 129.831C129.88 129.729 129.797 129.608 129.739 129.474C129.682 129.34 129.651 129.196 129.65 129.051Z" fill="#D3671E"/>
<path d="M99.1796 154.826C98.958 154.829 98.7432 154.864 98.5618 154.928C98.3805 154.991 98.2408 155.08 98.1601 155.182C98.0795 155.285 98.0615 155.397 98.1083 155.505C98.1552 155.613 98.265 155.712 98.4238 155.789C98.5826 155.865 98.7835 155.917 99.0013 155.938C99.2191 155.958 99.4442 155.946 99.6484 155.903C99.8526 155.861 100.027 155.789 100.15 155.697C100.272 155.605 100.338 155.497 100.338 155.387C100.336 155.312 100.305 155.238 100.246 155.169C100.187 155.101 100.101 155.038 99.9933 154.986C99.8857 154.934 99.7583 154.893 99.6187 154.866C99.479 154.838 99.3298 154.824 99.1796 154.826Z" fill="#D3671E"/>
<path d="M129.65 155.401C129.644 155.29 129.705 155.18 129.825 155.086C129.946 154.992 130.12 154.917 130.325 154.873C130.53 154.828 130.758 154.815 130.979 154.835C131.199 154.855 131.403 154.907 131.563 154.985C131.724 155.062 131.835 155.162 131.88 155.272C131.926 155.381 131.906 155.494 131.822 155.598C131.737 155.701 131.593 155.789 131.407 155.852C131.221 155.914 131.002 155.947 130.777 155.947C130.631 155.949 130.486 155.936 130.35 155.909C130.214 155.882 130.09 155.842 129.985 155.791C129.88 155.74 129.797 155.68 129.739 155.613C129.682 155.546 129.651 155.474 129.65 155.401Z" fill="#D3671E"/>
<path d="M83.4268 129.021C83.4268 128.406 83.6798 127.899 83.9898 127.899C84.2998 127.899 84.5541 128.398 84.5541 129.021C84.5541 129.645 84.3011 130.143 83.9898 130.143C83.6786 130.143 83.4268 129.637 83.4268 129.021Z" fill="#B25618"/>
<path d="M83.9905 155.948C84.3018 155.948 84.5541 155.696 84.5541 155.387C84.5541 155.077 84.3018 154.826 83.9905 154.826C83.6791 154.826 83.4268 155.077 83.4268 155.387C83.4268 155.696 83.6791 155.948 83.9905 155.948Z" fill="#B25618"/>
<path d="M58.6242 121.168C58.6242 121.168 65.7738 113.717 70.4904 115.989C76.6984 118.98 91.3785 118.147 95.082 117.375C98.7854 116.603 127.723 118.909 137.541 121.091L58.6242 121.168Z" fill="#D3671E"/>
<path opacity="0.4" d="M137.541 151.79V162.679H90.1912V121.168H98.1348L98.2905 121.234C98.2905 121.234 102.542 149.392 137.541 151.79Z" fill="#D86713"/>
<path d="M149.943 125.988C149.943 125.988 139.603 124.63 139.003 123.083C139.003 123.083 139.721 121.685 138.586 121.319C138.282 121.221 137.77 121.04 137.541 121.308L137.557 124.161C137.557 124.161 138.671 125.169 139.296 125.98C139.641 126.428 146.321 129.021 146.321 129.021L149.943 125.988Z" fill="#163560"/>
<path d="M168.916 147.218C169.843 145.937 168.879 136.888 162.205 139.635C160.787 140.044 159.082 141.026 157.039 142.815C157.039 142.815 154.107 149.422 165.67 153.793C165.67 153.793 166.815 154.262 166.979 155.274C167.142 156.286 167.324 160.827 166.932 160.965C166.54 161.102 165.958 160.581 165.535 161.155C165.112 161.728 165.261 162.679 165.261 162.679H169.463C169.463 162.679 171.471 152.477 171.359 151.663C171.246 150.849 167.812 148.737 168.916 147.218Z" fill="#060D6D"/>
<path d="M152.843 108.827C152.843 108.827 155.464 113.138 154.017 114.436L149.943 111.869C149.943 111.869 149.923 110.598 152.843 108.827Z" fill="#233862"/>
<path d="M176.483 133.77C175.582 132.17 174.234 129.497 176.014 128.405C177.531 127.475 176.95 125.536 176.073 125.066C174.225 124.09 172.349 125.325 171.469 126.533C169.795 128.829 172.018 132.419 172.018 132.419C174.12 136.853 169.793 139.163 167.706 139.987C166.693 138.511 165.515 137.151 164.193 135.933C163.474 135.265 162.814 134.72 162.261 134.264C156.388 129.343 157.811 127.544 156.421 125.332C156.148 124.893 155.066 123.702 154.78 123.321C154.494 122.939 154.392 121.596 154.358 120.411C155.019 119.86 155.088 119.243 155.088 119.243C155.126 119.41 155.126 119.583 155.088 119.75C155.773 119.206 155.617 117.953 155.617 117.953C155.769 118.134 155.829 118.523 155.829 118.523C156.173 116.571 154.948 114.98 154.938 114.968C155.155 113.136 153.6 109.949 153.6 109.949C152.464 110.809 151.857 111.557 151.532 112.114C150.471 111.798 149.22 111.819 147.905 113.08C147.504 113.466 146.312 113.78 145.75 113.708C145.439 113.669 144.735 115.19 144.707 115.398C144.399 117.698 145.145 118.836 146.486 120.013C146.673 120.532 146.818 121.228 146.486 121.697C146.486 121.697 146.768 121.584 146.803 121.495C146.78 121.614 146.626 122.34 146.223 122.665C146.316 122.655 146.408 122.634 146.495 122.602C146.144 123.039 144.806 124.851 144.825 127.082C142.011 127.105 139.335 126.937 139.075 126.23C139.075 126.23 139.684 125.066 138.685 124.481C138.348 124.307 137.971 124.222 137.59 124.233L137.541 127.41C137.541 127.41 138.758 128.298 139.349 129.104C139.551 129.381 143.486 131.122 146.432 132.398C148.146 139.68 153.652 143.89 155.475 145.111C155.738 147.336 157.086 150.231 160.949 153.603C160.949 153.603 161.848 154.438 161.64 155.455C161.432 156.472 159.982 160.873 159.572 160.873C159.162 160.873 157.775 160.286 157.177 160.693C156.578 161.099 157.407 162.679 157.407 162.679H161.623C161.623 162.679 166.83 154.28 167.014 153.467C167.198 152.654 164.757 149.494 166.323 148.411C166.995 147.946 167.928 145.396 167.734 143.057C169.787 142.349 179.3 138.777 176.483 133.77Z" fill="#060D6D"/>
<path d="M146.017 113.401C146.097 113.352 146.188 113.323 146.283 113.316C146.378 113.309 146.474 113.325 146.56 113.362C146.56 113.362 146.488 114.375 145.433 114.436C145.433 114.436 145.737 113.559 146.017 113.401Z" fill="#163560"/>
<path d="M146.561 114.526C146.594 114.534 149.859 115.554 152.197 117.802C149.817 115.513 146.63 114.446 146.595 114.436L146.561 114.526Z" fill="#163560"/>
<path d="M146.561 115.66C146.597 115.68 150.172 117.778 152.197 121.168C150.137 117.718 146.672 115.578 146.635 115.558L146.561 115.66Z" fill="#163560"/>
<path d="M146.561 115.633C146.586 115.655 149.004 117.987 149.943 121.168C148.989 117.931 146.664 115.581 146.639 115.558L146.561 115.633Z" fill="#163560"/>
<path d="M153.325 109.949C153.325 109.949 153.598 113.083 154.183 113.663C154.768 114.244 155.545 114.436 155.545 114.436C155.905 112.797 153.325 109.949 153.325 109.949Z" fill="#233862"/>
</svg>
