<svg width="112" height="71" viewBox="0 0 112 71" fill="none" xmlns="http://www.w3.org/2000/svg">
<path d="M112 0L22.8147 40.1242L29.9258 69.3637L112 0Z" fill="url(#paint0_linear)"/>
<path d="M112 0L22.8147 40.1242L29.9258 69.3637L112 0Z" fill="url(#paint1_linear)"/>
<path d="M112 0L22.8148 40.1242L8.23045 40.5155L0 31.4805L112 0Z" fill="url(#paint2_linear)"/>
<path d="M112 0L38.9793 51.3647L29.9258 69.3637L112 0Z" fill="url(#paint3_linear)"/>
<path d="M112 0L38.9793 51.3647L29.9258 69.3637L112 0Z" fill="url(#paint4_linear)"/>
<path d="M112 0L38.9792 51.3647L49.4813 65.024L62.8146 71L112 0Z" fill="url(#paint5_linear)"/>
<path d="M62.8148 71L49.4815 65.0241L38.9794 51.3647L29.9259 69.3637L22.8148 40.1243L8.23045 40.5155L0 31.4805L8.55967 40.2665L23.0782 40.0175L30.0576 68.1543L38.9794 51.3647L49.5473 64.4549L62.8148 71Z" fill="white"/>
<path d="M71.6251 43.3085C71.5 42.9956 71.3122 42.7453 70.9576 42.7245C70.8325 42.7245 70.6865 42.7662 70.5405 42.787C70.5405 42.7245 70.5405 42.6828 70.5405 42.6202C70.5613 42.1822 70.5822 41.7441 70.5822 41.3061C70.6239 40.1381 70.4362 39.0326 69.8313 38.0106C69.143 36.8217 68.1001 36.0499 66.8069 35.6119C66.6818 35.5702 66.5983 35.5285 66.5566 35.4033C66.348 34.9444 65.764 34.861 65.4303 35.2364C65.3886 35.2782 65.326 35.299 65.2843 35.3199C64.7628 35.3407 64.2205 35.3407 63.6991 35.3824C63.4696 35.4033 63.2402 35.4659 63.0107 35.5493C62.8022 35.6119 62.6144 35.6953 62.385 35.6327C62.1973 35.591 62.0096 35.6536 61.9261 35.8205C61.8636 36.0082 61.7175 36.0708 61.5715 36.1542C61.4255 36.2376 61.3004 36.3211 61.1752 36.4253C61.0292 36.5505 60.9041 36.5922 60.6955 36.5296C60.4243 36.4462 60.1115 36.6131 59.9863 36.8842C59.8612 37.1137 59.9029 37.4474 60.0906 37.6351C60.2992 37.8437 60.6329 37.9063 60.8832 37.7811C60.9875 37.7185 61.0501 37.7394 61.1335 37.802C62.4893 38.7197 63.6156 39.8878 64.4917 41.2644C65.0965 42.203 65.5554 43.2042 65.8683 44.268C65.8891 44.3514 65.9309 44.414 65.8266 44.4974C65.2634 44.8728 65.2217 45.6446 65.7014 46.1035C65.764 46.166 65.7849 46.2286 65.7431 46.3121C65.6389 46.5206 65.5346 46.7501 65.4303 46.9586C64.6585 48.5021 63.6365 49.8371 62.3433 51.0051C62.2181 51.1303 62.1138 51.172 61.9053 51.0885C61.5507 50.9425 61.1335 51.0885 60.9249 51.4014C60.7164 51.7143 60.7581 52.1106 60.9875 52.3817C61.2378 52.6737 61.6758 52.7572 62.0096 52.5695C62.093 52.5277 62.1556 52.5277 62.239 52.5903C62.8439 53.07 63.5113 53.4664 64.3039 53.5915C64.4291 53.6124 64.5125 53.6541 64.596 53.7584C64.742 53.9669 64.9505 54.0295 65.18 53.9878C65.4094 53.9461 65.5971 53.8209 65.6806 53.5706C65.7014 53.5081 65.764 53.4455 65.8266 53.4246C66.348 53.2161 66.8278 52.9449 67.2449 52.5903C68.6633 51.4223 69.6227 49.9622 70.1442 48.2101C70.165 48.1684 70.2068 48.1058 70.2485 48.085C70.4988 48.0224 70.6656 47.8973 70.8116 47.7095C71.1454 47.2924 71.3122 46.7918 71.4165 46.2703C71.5208 45.6655 71.6042 45.0606 71.6668 44.4557C71.7294 44.0802 71.7711 43.6839 71.6251 43.3085ZM66.4732 36.0499C66.5566 35.9665 66.6192 36.0082 66.6818 36.0499C67.8915 36.4671 68.8301 37.1971 69.4767 38.3026C69.8105 38.8866 69.9982 39.5541 70.0608 40.2215C70.1025 40.7847 70.1025 41.3478 70.1025 41.9319C70.1025 41.9736 70.1025 42.0153 70.0816 42.057C70.0608 42.057 70.0607 42.057 70.0399 42.057C69.9565 41.911 69.873 41.765 69.7896 41.619C69.1847 40.5135 68.413 39.5541 67.4952 38.6989C67.4326 38.6363 67.3909 38.5737 67.4118 38.4694C67.4952 38.1357 67.2866 37.802 66.9529 37.6768C66.8486 37.6351 66.8069 37.5934 66.7652 37.4891C66.64 37.0928 66.5149 36.6756 66.3897 36.2793C66.3897 36.1959 66.4106 36.1333 66.4732 36.0499ZM66.932 48.5439C66.8903 48.5856 66.8486 48.5856 66.786 48.6064C66.7652 48.5439 66.7235 48.5021 66.7235 48.4396C66.786 47.7513 66.7652 47.0421 66.6818 46.3538C66.6818 46.312 66.7235 46.2286 66.7652 46.2078C67.4326 45.8115 67.4952 44.9771 66.8903 44.4974C66.8486 44.4765 66.8278 44.3931 66.8278 44.3305C66.9946 43.5588 67.1406 42.787 67.1823 41.9944C67.2241 41.1393 67.2449 40.3049 67.1406 39.4498C67.1198 39.3038 67.0989 39.1369 67.0989 38.9909C67.1198 38.9909 67.1198 38.97 67.1406 38.97C67.2866 39.116 67.4326 39.262 67.5786 39.408C68.5798 40.4301 69.3516 41.5981 69.9356 42.8913C70.0399 43.0999 70.019 43.3085 69.9565 43.5171C69.3933 45.4569 68.3713 47.1255 66.932 48.5439ZM63.1985 35.9248C63.8242 35.7579 64.4499 35.6745 65.0965 35.7162C65.2008 35.7162 65.2634 35.7579 65.3051 35.8622C65.3886 36.1333 65.5971 36.2585 65.8474 36.3002C65.91 36.3211 65.9726 36.3628 65.9934 36.4045C66.1394 36.8217 66.2437 37.218 66.3897 37.6351C66.3897 37.656 66.3897 37.656 66.3689 37.7185C65.3468 36.9677 64.2414 36.4254 63.0525 35.9665C63.115 35.9665 63.1567 35.9456 63.1985 35.9248ZM64.0745 39.9295C63.2819 38.9492 62.385 38.1148 61.3421 37.4057C61.1335 37.2597 61.1127 36.9468 61.3421 36.8008C61.5298 36.6756 61.7175 36.5505 61.9261 36.4253C61.9678 36.4045 62.0513 36.4045 62.1138 36.4045C62.239 36.3836 62.3641 36.3836 62.4893 36.3628C62.5519 36.3628 62.6353 36.3211 62.6979 36.3419C63.8659 36.7174 64.9714 37.2597 65.9726 37.9688C66.0769 38.0314 66.1186 38.094 66.0977 38.24C66.056 38.5529 66.2646 38.8657 66.5566 38.97C66.6609 38.9909 66.6818 39.0535 66.7026 39.1369C66.8486 40.2632 66.8695 41.3687 66.7235 42.495C66.6609 43.0373 66.5357 43.6005 66.4315 44.1428C66.4315 44.1845 66.4106 44.2262 66.3897 44.268C66.3689 44.268 66.348 44.268 66.348 44.268C66.2646 43.9968 66.1812 43.7257 66.0769 43.4545C65.618 42.1822 64.9505 40.9933 64.0745 39.9295ZM66.202 46.3121C66.2229 46.3121 66.2229 46.312 66.2437 46.3329C66.2646 46.3955 66.2854 46.4581 66.2854 46.5415C66.2854 47.1672 66.3063 47.793 66.3063 48.4187C66.3063 48.5021 66.2646 48.5439 66.1812 48.5856C65.764 48.7524 65.5763 49.0862 65.6597 49.545C65.6597 49.5868 65.6389 49.6702 65.5971 49.7119C64.7628 50.3168 63.8659 50.8174 62.9065 51.1928C62.8856 51.1928 62.8647 51.1928 62.8439 51.2137L62.823 51.1928C64.2831 49.7536 65.4094 48.1476 66.202 46.3121ZM65.2008 52.6529C65.18 52.6946 65.1174 52.7363 65.0548 52.7363C64.8254 52.7572 64.6585 52.8615 64.5334 53.07C64.5125 53.1118 64.4499 53.1326 64.4291 53.1535C63.9494 53.07 63.5322 52.9032 63.1359 52.6737C62.9065 52.5486 62.7187 52.3817 62.4893 52.2357C62.3641 52.1523 62.4059 52.048 62.4267 51.9229C62.4476 51.8186 62.4893 51.756 62.5936 51.7143C63.7616 51.3388 64.8463 50.7548 65.8474 50.0456C65.8892 50.0248 65.9517 50.0039 65.9934 50.0039C65.9934 50.0665 66.0352 50.1291 66.0143 50.1708C65.8474 51.026 65.5763 51.8394 65.2008 52.6529ZM71.1245 45.4777C71.0411 45.9157 70.9576 46.3746 70.8116 46.8126C70.7282 47.0838 70.5196 47.3132 70.3736 47.5427C70.3528 47.5844 70.2902 47.6052 70.2485 47.647C70.1442 47.4384 69.9982 47.6261 69.873 47.6052C69.8522 47.6052 69.8313 47.647 69.8105 47.6887C69.5184 49.1487 68.7884 50.3794 67.7872 51.4848C67.2241 52.1106 66.5775 52.632 65.8057 52.9449C65.7431 52.9658 65.6806 52.9866 65.618 53.0075C65.5971 53.0075 65.5971 52.9866 65.5763 52.9866C65.5971 52.924 65.618 52.8615 65.6389 52.7989C65.9934 52.0271 66.2646 51.2345 66.4523 50.4002C66.4732 50.3168 66.3897 50.2334 66.348 50.1499V50.1291C66.3897 50.1291 66.4315 50.1499 66.4732 50.1499C66.8903 50.1499 67.2449 49.7953 67.2449 49.3782C67.2449 49.2739 67.2241 49.1696 67.1823 49.0862C67.1615 49.0027 67.2032 48.9402 67.2866 48.8567C68.5173 47.647 69.4559 46.2495 70.0816 44.6226C70.1859 44.3514 70.2693 44.0802 70.3736 43.8299C70.4571 43.6631 70.5405 43.4962 70.6656 43.3294C70.8325 43.1208 71.0828 43.1625 71.1871 43.4128C71.2497 43.5379 71.2705 43.7048 71.2705 43.8508C71.2914 44.3931 71.2288 44.9354 71.1245 45.4777Z" fill="#FD6D4C"/>
<path d="M62.969 42.1613C62.969 41.4104 62.4059 40.8264 61.6758 40.8264C60.925 40.8264 60.3201 41.3896 60.3201 42.1196C60.3201 42.8496 60.9041 43.4754 61.6341 43.4754C62.3642 43.4754 62.9482 42.8914 62.969 42.1613Z" fill="#FD6D4C"/>
<path d="M58.5261 45.3943C57.796 45.3943 57.1912 45.9783 57.1912 46.7083C57.1912 47.4384 57.7752 48.0433 58.5052 48.0433C59.277 48.0433 59.8401 47.4801 59.8401 46.7292C59.8818 45.9783 59.2144 45.3943 58.5261 45.3943Z" fill="#FD6D4C"/>
<path d="M61.7173 46.8752C61.7173 47.3757 62.0302 47.7095 62.5099 47.7095C63.0105 47.7095 63.3442 47.3757 63.3442 46.8752C63.3442 46.3954 63.0105 46.0408 62.5307 46.0408C62.051 46.0408 61.7173 46.3954 61.7173 46.8752Z" fill="#FD6D4C"/>
<path d="M55.9399 39.9712C55.4602 39.9712 55.1265 40.3049 55.1265 40.8055C55.1265 41.2852 55.4602 41.619 55.9399 41.6398C56.3988 41.6398 56.7534 41.2852 56.7534 40.8055C56.7534 40.3049 56.4405 39.9712 55.9399 39.9712Z" fill="#FD6D4C"/>
<path d="M59.1727 40.284C59.5482 40.284 59.7985 40.0546 59.7985 39.6791C59.7985 39.3246 59.569 39.0743 59.2145 39.0534C58.8599 39.0534 58.6096 39.2828 58.5887 39.6583C58.5679 40.0129 58.7973 40.284 59.1727 40.284Z" fill="#FD6D4C"/>
<path d="M56.1066 48.8359C55.752 48.8359 55.5017 49.0862 55.5017 49.4408C55.5017 49.8162 55.752 50.0456 56.1066 50.0456C56.482 50.0456 56.7115 49.7954 56.7115 49.4408C56.7115 49.0653 56.482 48.8359 56.1066 48.8359Z" fill="#FD6D4C"/>
<path d="M54.6049 44.0385C54.2503 44.0385 54 44.2888 54 44.6434C54 44.998 54.2294 45.2483 54.6049 45.2483C54.9803 45.2483 55.2098 45.0188 55.2098 44.6434C55.1889 44.2888 54.9595 44.0385 54.6049 44.0385Z" fill="#FD6D4C"/>
<defs>
<linearGradient id="paint0_linear" x1="76.0919" y1="59.6432" x2="63.4933" y2="10.375" gradientUnits="userSpaceOnUse">
<stop stop-color="#D4D1D8"/>
<stop offset="1" stop-color="white"/>
</linearGradient>
<linearGradient id="paint1_linear" x1="69.2894" y1="30.1576" x2="65.1887" y2="20.7133" gradientUnits="userSpaceOnUse">
<stop stop-color="white"/>
<stop offset="1" stop-color="#E6E7E8"/>
</linearGradient>
<linearGradient id="paint2_linear" x1="-15.5098" y1="-33.4001" x2="58.6593" y2="11.6588" gradientUnits="userSpaceOnUse">
<stop stop-color="#D4D1D8"/>
<stop offset="1" stop-color="white"/>
</linearGradient>
<linearGradient id="paint3_linear" x1="33.5297" y1="38.4289" x2="71.1043" y2="35.205" gradientUnits="userSpaceOnUse">
<stop stop-color="#D4D1D8"/>
<stop offset="1" stop-color="white"/>
</linearGradient>
<linearGradient id="paint4_linear" x1="67.5868" y1="74.2683" x2="69.7917" y2="52.1727" gradientUnits="userSpaceOnUse">
<stop stop-color="white"/>
<stop offset="1" stop-color="#DEDFE0"/>
</linearGradient>
<linearGradient id="paint5_linear" x1="126.43" y1="67.7503" x2="68.2832" y2="29.318" gradientUnits="userSpaceOnUse">
<stop stop-color="#D4D1D8"/>
<stop offset="1" stop-color="white"/>
</linearGradient>
</defs>
</svg>
