<svg width="239" height="140" viewBox="0 0 239 140" fill="none" xmlns="http://www.w3.org/2000/svg">
<path d="M94.6099 68.8874C92.0112 68.0186 92.5879 64.6279 92.584 64.205C92.584 62.0291 94.9981 57.4082 94.9981 57.4082C95.5363 56.1819 96.5358 56.5778 96.4589 56.9661C96.3974 57.1468 96.7395 56.2895 96.8164 56.1127C97.543 54.598 98.5886 55.4207 98.4656 56.0819C98.8269 54.821 100.234 55.1247 100.065 55.9551C100.418 55.0824 101.695 55.413 101.406 56.7777C101.31 57.5466 99.4843 63.6976 99.4843 63.6976C100.042 63.8359 100.703 61.4332 102.121 61.6178C102.179 61.641 102.225 61.6855 102.251 61.742C102.277 61.7985 102.28 61.8628 102.26 61.9215C101.447 64.0596 100.145 65.9777 98.4579 67.5227C97.5853 68.403 96.1706 69.4102 94.6099 68.8874Z" fill="#EF9D7F"/>
<path d="M96.2879 56.9857L95.186 60.6447L95.4069 60.7112L96.5087 57.0522L96.2879 56.9857Z" fill="#5E1F3C"/>
<path d="M98.3197 56.0521L96.679 60.85L96.8972 60.9246L98.5379 56.1267L98.3197 56.0521Z" fill="#5E1F3C"/>
<path d="M99.9558 55.937L98.259 61.283L98.4789 61.3528L100.176 56.0067L99.9558 55.937Z" fill="#5E1F3C"/>
<path d="M99.0037 61.6754C97.6148 61.162 96.16 60.8488 94.6829 60.7451V60.5145C96.1812 60.6193 97.6569 60.9377 99.0652 61.4602L99.0037 61.6754Z" fill="#5E1F3C"/>
<path d="M95.917 65.4237L95.7209 65.3007C97.028 63.2209 99.4844 63.5745 99.5074 63.5784L99.4728 63.8052C99.4498 63.8206 97.1394 63.4707 95.917 65.4237Z" fill="#5E1F3C"/>
<path d="M97.4431 68.0686C97.4431 68.0686 85.6877 86.137 85.4109 86.5522C85.1341 86.9673 84.8881 88.4051 84.0116 89.001C82.9126 89.7384 81.5686 90.0161 80.2674 89.7746C78.9662 89.5332 77.8112 88.7918 77.0499 87.7093C75.8005 85.8871 76.4771 84.5839 77.934 82.8962L92.561 65.5659L97.4431 68.0686Z" fill="#EF9D7F"/>
<path d="M82.0779 92.3187C82.9505 91.7228 83.754 90.4964 84.0269 90.0659C84.2037 89.7891 92.3764 76.4646 92.3764 76.4646L86.4872 72.2358L75.4622 85.0759C74.7537 85.8891 74.3343 86.914 74.2697 87.9905C74.205 89.0671 74.4986 90.1348 75.1046 91.027C75.8662 92.1127 77.0234 92.8563 78.3273 93.0979C79.6313 93.3394 80.978 93.0596 82.0779 92.3187Z" fill="white"/>
<path d="M93.2299 67.5457C92.8351 66.954 92.5728 66.2839 92.4611 65.5813L92.6879 65.5467C92.8015 66.2128 93.0558 66.8471 93.4336 67.4074L93.2299 67.5457Z" fill="#5E1F3C"/>
<path d="M86.3258 71.9475L84.8342 73.5583L91.5038 78.7443L92.9454 76.4992L86.3258 71.9475Z" fill="white"/>
<path d="M85.2102 73.699L85.0686 73.8811L91.0749 78.5504L91.2164 78.3683L85.2102 73.699Z" fill="#5E1F3C"/>
<path d="M60.7277 133.572H69.9536C69.8306 132.627 69.2463 129.924 69.2463 129.924L60.5085 130.8C60.6976 131.712 60.7712 132.643 60.7277 133.572Z" fill="#EF9D7F"/>
<path d="M60.2241 133.038C60.0934 133.807 58.1483 134.683 57.6293 135.222C57.6293 135.222 53.3239 136.794 53.3239 139.17L70.9377 140C71.1011 137.658 70.8712 135.304 70.2573 133.038C69.796 131.696 66.7322 131.742 64.8179 133.038H60.2241Z" fill="white"/>
<path d="M71.2798 138.72H53.1931V140H71.2798V138.72Z" fill="white"/>
<path d="M71.003 138.605H53.1931V138.835H71.003V138.605Z" fill="#5E1F3C"/>
<path d="M64.9293 138.751L64.7063 138.693C65.0727 137.518 65.8157 136.497 66.8203 135.787C67.825 135.077 69.0355 134.717 70.2649 134.764V134.995C69.4531 134.958 68.6436 135.108 67.8982 135.432C67.1528 135.755 66.4911 136.245 65.9633 136.863C65.4959 137.417 65.1443 138.059 64.9293 138.751Z" fill="#5E1F3C"/>
<path d="M59.9235 134.698L59.3322 133.887L59.5165 133.753L60.1079 134.563L59.9235 134.698Z" fill="#5E1F3C"/>
<path d="M58.6951 134.406L58.5087 134.542L59.0992 135.353L59.2857 135.217L58.6951 134.406Z" fill="#5E1F3C"/>
<path d="M57.9128 134.949L57.7263 135.085L58.3169 135.896L58.5034 135.76L57.9128 134.949Z" fill="#5E1F3C"/>
<path d="M70.0919 130.058L59.7281 131.539L53.3314 97.2586L66.6322 95.3595L70.0919 130.058Z" fill="#D85B6B"/>
<path d="M70.1304 128.136L58.8748 129.47L59.5283 131.888L70.2573 130.358L70.1304 128.136Z" fill="#C1485C"/>
<path d="M91.9575 133.572H82.7661C82.8853 132.627 83.0237 131.696 83.189 130.801H91.9267C91.9267 130.801 91.896 132.011 91.9575 133.572Z" fill="#EF9D7F"/>
<path d="M92.4612 133.038C92.5957 133.807 94.5408 134.683 95.056 135.222C95.056 135.222 99.3614 136.794 99.3614 139.17L81.7475 140C81.5843 137.657 81.8156 135.304 82.4318 133.038C82.8931 131.696 85.953 131.742 87.8674 133.038H92.4612Z" fill="white"/>
<path d="M81.4053 140H99.4921V138.72H81.4053V140Z" fill="white"/>
<path d="M99.4921 138.605H81.6821V138.835H99.4921V138.605Z" fill="#5E1F3C"/>
<path d="M87.7635 138.751C87.5519 138.058 87.1999 137.417 86.7295 136.867C86.2021 136.248 85.5405 135.758 84.7951 135.433C84.0497 135.109 83.24 134.959 82.4279 134.995V134.764C83.6575 134.716 84.8687 135.075 85.8736 135.785C86.8786 136.496 87.6212 137.518 87.9865 138.693L87.7635 138.751Z" fill="#5E1F3C"/>
<path d="M92.7646 134.698L92.5764 134.563L93.1678 133.753L93.3521 133.887L92.7646 134.698Z" fill="#5E1F3C"/>
<path d="M93.5834 135.34L93.3953 135.201L93.9866 134.391L94.171 134.529L93.5834 135.34Z" fill="#5E1F3C"/>
<path d="M94.3599 135.882L94.1755 135.747L94.7631 134.937L94.9513 135.071L94.3599 135.882Z" fill="#5E1F3C"/>
<path d="M92.5917 130.847H82.0742L80.5826 96.1207H94.0794L92.5917 130.847Z" fill="#D85B6B"/>
<path d="M93.5144 128.955L81.5206 128.682L81.8435 131.166H93.3145L93.5144 128.955Z" fill="#C1485C"/>
<path d="M67.0475 53.6062L67.159 43.6993L72.4485 36.322L78.2762 31.8626L80.871 32.2701C80.871 32.2701 82.9892 36.2298 83.216 38.421C83.4428 40.6123 84.696 41.4427 84.696 42.6152C84.696 43.2495 83.0584 43.98 83.0584 43.98C83.0584 43.98 83.8772 50.2155 81.3285 50.9459C78.7798 51.6763 77.4844 51.2227 77.4844 51.2227L77.7035 56.5509L67.0475 53.6062Z" fill="#FCA886"/>
<path d="M67.1243 46.844C61.9308 41.8463 61.5772 35.2494 64.7102 34.0923C63.5569 28.7102 71.9448 26.4036 81.5552 24.5314C83.2389 28.6257 83.189 32.1009 78.5952 33.9578C79.6062 36.1644 79.9368 37.4484 80.006 40.4431C80.006 40.4431 79.9714 41.6964 79.1642 41.4696C78.4722 37.929 76.6309 36.5258 75.197 37.6252C73.7631 38.7247 74.1398 42.0385 75.2892 43.6993C73.9246 46.9055 69.9113 47.4129 67.1243 46.844Z" fill="#5E1F3C"/>
<path d="M77.6457 49.8695H77.415V51.3227H77.6457V49.8695Z" fill="#5E1F3C"/>
<path d="M83.1393 42.8763L82.91 42.9019L83.0359 44.029L83.2651 44.0034L83.1393 42.8763Z" fill="#5E1F3C"/>
<path d="M76.1427 43.1304C75.4892 41.7349 75.0894 39.9011 75.5968 39.1092C75.6771 38.9787 75.7905 38.8718 75.9256 38.7996C76.0607 38.7273 76.2126 38.6922 76.3657 38.6979V38.9285C76.2494 38.9214 76.1333 38.9458 76.0297 38.9993C75.9262 39.0528 75.839 39.1332 75.7775 39.2322C75.3239 39.9473 75.7275 41.7272 76.3388 43.0343L76.1427 43.1304Z" fill="#5E1F3C"/>
<path d="M76.5694 44.9103C75.7814 44.9103 75.2509 43.9453 75.224 43.8992L75.4277 43.7877C75.4277 43.7877 76.0505 44.9141 76.8347 44.6296L76.9154 44.8488C76.8045 44.889 76.6875 44.9098 76.5694 44.9103Z" fill="#5E1F3C"/>
<path d="M77.5035 42.5806C77.3273 42.2816 77.0609 42.046 76.7425 41.9079C76.4241 41.7698 76.0701 41.7361 75.7314 41.8118L75.666 41.5888C76.0513 41.5024 76.4541 41.539 76.8175 41.6934C77.1809 41.8479 77.4867 42.1125 77.6919 42.4499L77.5035 42.5806Z" fill="#5E1F3C"/>
<path d="M93.7951 64.3319C93.2338 61.9715 91.5616 59.9147 88.8284 58.5654L79.218 54.1521C74.3475 50.5576 69.3847 50.9228 65.0716 54.1521L55.4612 58.5654C52.728 59.9147 50.4023 61.8254 49.622 64.2281C45.4895 75.1806 43.9788 79.6054 46.9849 89.42C49.0646 95.571 58.575 95.5018 60.5586 88.9664C62.5421 82.431 81.5438 97.57 93.2031 94.9751C96.2194 85.1541 96.4168 74.9397 93.7951 64.3319Z" fill="white"/>
<path d="M54.2891 71.3513L54.0608 71.3835L55.959 84.8069L56.1873 84.7746L54.2891 71.3513Z" fill="#5E1F3C"/>
<path d="M54.2695 74.281C53.4619 73.5783 52.8746 72.6571 52.5781 71.6284L52.8049 71.5746C53.0934 72.5555 53.6531 73.435 54.4195 74.1118L54.2695 74.281Z" fill="#5E1F3C"/>
<path d="M87.5637 85.6257L87.333 85.5872L89.2743 74.1772L89.5011 74.2157L87.5637 85.6257Z" fill="#5E1F3C"/>
<path d="M89.0898 76.4531L88.9475 76.2686C89.7949 75.6765 90.4829 74.8841 90.9503 73.962L91.1617 74.0504C90.6832 75.0122 89.9708 75.8384 89.0898 76.4531Z" fill="#5E1F3C"/>
<path d="M53.8198 70.0946C52.9257 67.2459 52.6556 64.238 53.0279 61.2756L53.2547 61.3141C52.889 64.2395 53.1578 67.2093 54.0427 70.0215L53.8198 70.0946Z" fill="#5E1F3C"/>
<path d="M91.1617 72.6626L90.9503 72.578C92.4303 68.7645 92.488 63.144 92.488 63.0864H92.7186C92.734 63.1479 92.661 68.8183 91.1617 72.6626Z" fill="#5E1F3C"/>
<path d="M91.7845 63.786C85.6339 60.576 77.8495 59.9186 72.4139 59.9417C66.0557 59.9647 59.1785 60.9412 54.0196 62.552L53.9504 62.3329C62.546 59.6418 80.4443 57.612 91.8922 63.5784L91.7845 63.786Z" fill="#5E1F3C"/>
<path d="M78.5376 51.6725C76.7809 50.2463 74.0515 49.9233 72.1487 49.9233C70.2458 49.9233 67.5126 50.2463 65.7559 51.6725L65.0831 54.1521C67.3183 53.2011 69.7276 52.7284 72.1564 52.7643C74.5873 52.7027 77.0021 53.1765 79.2296 54.1521L78.5376 51.6725Z" fill="white"/>
<path d="M65.1177 54.2597L65.037 54.0406C70.0344 52.1915 74.805 52.1915 79.2603 54.0406L79.1719 54.252C74.7742 52.4298 70.0421 52.4298 65.1177 54.2597Z" fill="#5E1F3C"/>
<path d="M57.8176 113.486L54.554 140H56.4837L62.3307 113.486H57.8176Z" fill="#5E1F3C"/>
<path d="M86.4836 113.486L89.7511 140H87.8175L81.9744 113.486H86.4836Z" fill="#5E1F3C"/>
<path d="M91.6346 71.6016C84.7574 72.7549 78.1801 73.4814 72.1525 73.4584C66.1248 73.4353 59.5475 72.7549 52.6665 71.6016C47.1001 70.5674 45.1396 74.1888 46.4082 78.6828L51.0558 93.8795C48.6647 94.4216 48.1227 96.0708 48.8492 97.6393L55.0614 111.41C55.5995 112.717 56.6721 113.486 58.3174 113.486H85.9952C87.6405 113.486 88.7092 112.717 89.2512 111.41L95.4518 97.6508C96.1745 96.0823 95.6363 94.4331 93.2414 93.891L97.889 78.6944C99.1653 74.2003 97.2047 70.5674 91.6346 71.6016Z" fill="#F99746"/>
<path d="M46.2467 77.7641L46.0199 77.7295C46.0917 77.1003 46.2922 76.4927 46.609 75.9444C46.9258 75.3961 47.352 74.9189 47.8612 74.5425C49.0529 73.7121 50.679 73.493 52.6972 73.8928C60.2625 75.246 66.6399 75.888 72.1601 75.8688C77.6803 75.8496 84.0577 75.246 91.623 73.8928C93.6412 73.5084 95.2673 73.7121 96.4589 74.5425C96.9682 74.9189 97.3944 75.3961 97.7112 75.9444C98.028 76.4927 98.2285 77.1003 98.3003 77.7295L98.0735 77.7641C98.0054 77.1656 97.815 76.5875 97.5141 76.0657C97.2132 75.5439 96.8083 75.0896 96.3244 74.7309C95.1712 73.9389 93.6335 73.7313 91.6653 74.1196C84.0846 75.4767 77.6957 76.1302 72.1601 76.0995C66.6245 76.0687 60.2432 75.4767 52.6549 74.1196C50.6982 73.7352 49.1298 73.9389 47.9919 74.7309C47.5093 75.0904 47.1054 75.5451 46.8053 76.0667C46.5051 76.5884 46.315 77.1661 46.2467 77.7641Z" fill="#824865"/>
<path d="M55.1267 107.427L50.9481 93.9141L51.1672 93.8487L55.3458 107.362L55.1267 107.427Z" fill="#824865"/>
<path d="M89.1436 107.427L88.9244 107.362L93.103 93.8487L93.3221 93.9141L89.1436 107.427Z" fill="#824865"/>
<path d="M62.2383 113.332H57.7753V113.562H62.2383V113.332Z" fill="#824865"/>
<path d="M86.5373 113.332H82.0742V113.562H86.5373V113.332Z" fill="#824865"/>
<path d="M180 100.961C179.969 101.164 179.074 109.684 179.074 109.684L185.789 109.184L187.346 100.945L180 100.961Z" fill="#FCA886"/>
<path d="M178.508 105.601C178.508 105.601 175.856 109.303 173.753 109.968C171.651 110.633 168.614 111.34 168.644 115.3H187.954C187.823 111.594 187.388 108.569 186.297 106.996C185.269 107.161 184.222 107.161 183.194 106.996C182.33 106.581 179.639 104.509 178.508 105.601Z" fill="white"/>
<path d="M185.205 108.415C184.503 108.415 183.802 108.346 183.114 108.207L183.164 107.984C184.357 108.219 185.582 108.237 186.781 108.038L186.827 108.265C186.293 108.368 185.749 108.418 185.205 108.415Z" fill="#5E1F3C"/>
<path d="M178.843 107.719C178.493 107.322 178.014 107.061 177.49 106.985L177.524 106.754C178.109 106.838 178.643 107.132 179.027 107.581L178.843 107.719Z" fill="#5E1F3C"/>
<path d="M178.328 108.269C177.978 107.871 177.499 107.611 176.975 107.535L177.009 107.304C177.594 107.388 178.128 107.682 178.512 108.13L178.328 108.269Z" fill="#5E1F3C"/>
<path d="M177.797 108.826C177.45 108.426 176.969 108.164 176.444 108.088L176.479 107.857C177.063 107.942 177.598 108.235 177.982 108.684L177.797 108.826Z" fill="#5E1F3C"/>
<path d="M168.648 115.3H187.954V113.762H168.648V115.3Z" fill="#5E1F3C"/>
<path d="M176.379 112.674C176.023 112.362 175.805 111.923 175.77 111.451C175.736 110.979 175.888 110.513 176.194 110.153L179.531 106.996L179.689 107.165L176.36 110.314C176.329 110.352 175.433 111.371 176.544 112.513L176.379 112.674Z" fill="#5E1F3C"/>
<path d="M186.304 113.766C186.251 110.918 187.381 110.268 187.427 110.241L187.538 110.445C187.538 110.445 186.485 111.071 186.535 113.759L186.304 113.766Z" fill="#5E1F3C"/>
<path d="M208.424 60.3337L187.158 64.8893C182.118 66.2809 181.099 69.6409 180.573 76.2685L178.297 104.571H187.139L193.639 74.2848H223.712L224.5 67.2113L218.011 61.8561L215.62 60.3376L208.424 60.3337Z" fill="#844250"/>
<path d="M190.156 100.961C190.122 101.164 191.509 109.684 191.509 109.684L198.244 109.184L197.514 100.945L190.156 100.961Z" fill="#FCA886"/>
<path d="M190.364 105.601C190.364 105.601 187.711 109.303 185.609 109.953C183.506 110.602 180.469 111.325 180.5 115.285H199.809C199.678 111.579 199.244 108.553 198.156 106.981C197.127 107.146 196.079 107.146 195.05 106.981C194.17 106.581 191.509 104.509 190.364 105.601Z" fill="white"/>
<path d="M180.792 113.797L180.569 113.739C181.203 111.225 183.429 110.533 185.22 109.98L185.582 109.864C186.455 109.516 187.242 108.982 187.888 108.3L188.046 108.465C187.376 109.171 186.561 109.724 185.659 110.087L185.274 110.199C183.548 110.721 181.388 111.398 180.792 113.797Z" fill="#5E1F3C"/>
<path d="M197.06 108.415C196.358 108.415 195.657 108.346 194.969 108.207L195.019 107.984C196.212 108.219 197.437 108.237 198.636 108.038L198.682 108.265C198.148 108.368 197.605 108.419 197.06 108.415Z" fill="#5E1F3C"/>
<path d="M190.698 107.719C190.348 107.322 189.869 107.061 189.345 106.985L189.38 106.754C189.965 106.837 190.499 107.131 190.883 107.581L190.698 107.719Z" fill="#5E1F3C"/>
<path d="M190.183 108.269C189.833 107.871 189.354 107.611 188.83 107.535L188.865 107.304C189.45 107.386 189.985 107.68 190.368 108.13L190.183 108.269Z" fill="#5E1F3C"/>
<path d="M189.653 108.826C189.305 108.426 188.825 108.164 188.3 108.088L188.334 107.857C188.919 107.942 189.453 108.235 189.837 108.684L189.653 108.826Z" fill="#5E1F3C"/>
<path d="M180.504 115.3H199.809V113.762H180.504V115.3Z" fill="#5E1F3C"/>
<path d="M188.234 112.674C187.88 112.362 187.662 111.923 187.627 111.451C187.593 110.98 187.744 110.513 188.05 110.153L191.386 106.996L191.544 107.165L188.215 110.314C188.184 110.352 187.288 111.371 188.399 112.513L188.234 112.674Z" fill="#5E1F3C"/>
<path d="M198.16 113.766C198.11 110.918 199.236 110.268 199.286 110.241L199.394 110.445L199.34 110.345L199.398 110.445C199.398 110.445 198.34 111.071 198.39 113.759L198.16 113.766Z" fill="#5E1F3C"/>
<path d="M210.557 61.9792L189.287 66.5347C184.248 67.9225 182.86 72.159 183.829 76.2686L190.283 104.571H199.125L195.784 75.9264H225.845C228.536 75.7265 229.924 73.4853 230.289 69.664L220.148 63.5131L217.753 61.9984L210.557 61.9792Z" fill="#844250"/>
<path d="M188.607 97.7392L183.713 76.2954C183.198 74.0965 183.368 72.0359 184.202 70.3329C185.132 68.4299 186.893 67.0767 189.257 66.4232L211.453 61.7023L211.503 61.9253L189.311 66.6462C185.851 67.5995 182.618 70.625 183.929 76.257L188.822 97.7046L188.607 97.7392Z" fill="#5E1F3C"/>
<path d="M195.988 76.134L191.663 74.454L191.748 74.2387L195.557 75.7188L194.731 73.8082L194.942 73.7159L195.988 76.134Z" fill="#5E1F3C"/>
<path d="M198.906 102.525H189.845V102.756H198.906V102.525Z" fill="#5E1F3C"/>
<path d="M187.481 102.525H178.42V102.756H187.481V102.525Z" fill="#5E1F3C"/>
<path d="M230.124 75.9264H197.706V78.9634H230.124V75.9264Z" fill="#F99746"/>
<path d="M233.97 52.3851L235.64 52.6246C235.991 52.675 236.317 52.4312 236.367 52.0803L238.159 39.5833C238.209 39.2323 237.965 38.907 237.615 38.8566L235.944 38.6171C235.593 38.5668 235.268 38.8105 235.217 39.1615L233.426 51.6585C233.375 52.0094 233.619 52.3348 233.97 52.3851Z" fill="#F99746"/>
<path d="M228.167 114.793L226.053 79.075H201.777L199.663 114.793L199.432 114.781L201.558 78.8443H226.268L228.398 114.781L228.167 114.793Z" fill="#5E1F3C"/>
<path d="M230.124 76.0418V75.8111C231.915 75.8111 232.965 74.7039 233.33 72.4281L237.874 40.7238L238.104 40.7584L233.56 72.4627C233.18 74.8385 232.023 76.0418 230.124 76.0418Z" fill="#5E1F3C"/>
<path d="M216.542 6.0248C219.313 5.2297 222.274 5.41158 224.926 6.53994C227.756 7.80088 229.563 10.3151 231.077 13.1906C232.976 16.762 234.798 20.9754 234.383 25.2696C233.311 34.7266 225.157 34.4345 225.157 34.4345H218.391C216.479 33.7289 214.834 32.4442 213.686 30.7593C211.049 26.8419 211.799 18.3382 211.799 18.3382C211.161 11.6683 212.314 7.24346 216.542 6.0248Z" fill="#FF6D00"/>
<path d="M209.907 61.0219C215.155 67.6918 221.286 72.5549 228.825 74.5655C229.252 74.1232 229.584 73.5968 229.797 73.0197C230.011 72.4427 230.103 71.8275 230.066 71.2133C223.645 67.2559 216.901 63.8467 209.907 61.0219Z" fill="white"/>
<path d="M207.678 60.4952C212.291 60.945 214.24 64.724 218.242 67.1152C221.845 69.3099 225.877 70.7072 230.066 71.2132C233.495 68.1109 236.709 30.9399 225.838 24.4853L216.781 29.0178C216.195 29.5177 215.689 30.1051 215.282 30.7593C214.828 31.4589 206.117 44.4067 205.606 45.7983C203.865 49.6119 205.133 53.5523 207.144 54.5826C207.086 56.5586 207.651 58.1386 209.104 59.1497C208.581 59.5446 208.103 59.9958 207.678 60.4952Z" fill="#D85B6B"/>
<path d="M215.835 57.1276L218.119 58.2809C218.343 58.3893 218.597 58.422 218.841 58.3742C219.086 58.3264 219.308 58.2006 219.476 58.0156C220.148 58.277 221.013 58.1002 221.013 57.3698C221.636 57.6312 222.201 57.0622 221.817 56.1704C222.439 56.1704 222.893 55.6937 222.343 54.5942L220.214 51.6648C220.214 51.6648 217.923 54.3135 215.835 57.1276Z" fill="#FCA886"/>
<path d="M216.695 56.0107L216.567 56.2027L219.399 58.0889L219.527 57.897L216.695 56.0107Z" fill="#5E1F3C"/>
<path d="M220.944 57.4505L217.7 54.7979L217.846 54.6211L221.09 57.2698L220.944 57.4505Z" fill="#5E1F3C"/>
<path d="M219.125 53.0838L218.955 53.2403L221.746 56.2623L221.915 56.1059L219.125 53.0838Z" fill="#5E1F3C"/>
<path d="M211.061 59.6764C210.372 59.6817 209.69 59.5374 209.062 59.2535L209.158 59.0459C211.157 59.957 213.771 59.2804 215.474 57.3967L229.178 40.4278L229.355 40.57L215.651 57.5466C215.073 58.198 214.367 58.7232 213.578 59.0897C212.788 59.4561 211.931 59.6558 211.061 59.6764Z" fill="#5E1F3C"/>
<path d="M207.036 54.5942C207.044 53.1077 207.529 51.663 208.42 50.473C209.83 48.6431 219.026 34.8266 219.118 34.6882L219.31 34.815C219.218 34.9573 210.019 48.7777 208.6 50.6114C207.752 51.7679 207.286 53.1601 207.266 54.5942H207.036Z" fill="#5E1F3C"/>
<path d="M205.617 50.1271L205.391 50.0925C205.775 47.7859 206.859 46.7633 207.505 46.3481C206.683 46.4947 205.935 46.913 205.379 47.536L205.202 47.3899C205.248 47.3361 206.355 46.0175 208.035 46.0944C208.062 46.0951 208.088 46.1057 208.108 46.1241C208.128 46.1425 208.14 46.1674 208.143 46.1943C208.146 46.2205 208.14 46.247 208.126 46.2694C208.112 46.2918 208.091 46.3087 208.066 46.3173C208.047 46.325 206.121 47.0093 205.617 50.1271Z" fill="#5E1F3C"/>
<path d="M208.135 46.0751L207.955 44.5374C207.924 44.4093 207.933 44.2749 207.98 44.152C208.028 44.0291 208.112 43.9235 208.22 43.8493C208.329 43.7751 208.458 43.7357 208.59 43.7364C208.721 43.7371 208.85 43.7778 208.958 43.8531V42.769C209.043 42.054 209.861 41.5388 210.192 41.854C210.492 40.7892 211.345 40.4547 211.445 41.4158L211.641 43.338C211.641 43.338 210.999 44.5374 211.034 45.4139C211.068 46.2904 210.603 46.5172 210.353 46.5672C209.623 46.6364 208.135 46.0751 208.135 46.0751Z" fill="#FCA886"/>
<path d="M210.903 45.2525C209.957 43.8723 210.073 41.9233 210.077 41.8425H210.307C210.307 41.8425 210.196 43.7916 211.095 45.1064L210.903 45.2525Z" fill="#5E1F3C"/>
<path d="M209.819 46.6018C209.05 45.7407 208.85 43.9377 208.843 43.8608L209.073 43.8377C209.073 43.8377 209.273 45.6407 209.992 46.448L209.819 46.6018Z" fill="#5E1F3C"/>
<path d="M211.753 43.3764L211.53 43.3303C212.177 40.7946 213.181 38.3637 214.513 36.1106L214.713 36.2259C213.395 38.4584 212.398 40.8656 211.753 43.3764Z" fill="#5E1F3C"/>
<path d="M217.242 30.6286C219.417 28.395 222.169 26.8087 225.192 26.0461L225.165 19.3262L216.485 24.1047L217.242 30.6286Z" fill="#FCA886"/>
<path d="M219.007 25.9347H219.01C222.42 25.9347 225.184 23.1705 225.184 19.7607V15.1398C225.184 11.73 222.42 8.96578 219.01 8.96578H219.007C215.597 8.96578 212.833 11.73 212.833 15.1398V19.7607C212.833 23.1705 215.597 25.9347 219.007 25.9347Z" fill="#FCA886"/>
<path d="M219.01 26.0462C218.247 26.047 217.49 25.9076 216.777 25.6348L216.858 25.4195C217.545 25.6792 218.275 25.8096 219.01 25.804C219.871 25.8021 220.72 25.6174 221.504 25.2621C222.287 24.9069 222.986 24.3892 223.554 23.7434L223.727 23.8972C223.139 24.57 222.414 25.1097 221.6 25.4802C220.787 25.8508 219.904 26.0437 219.01 26.0462Z" fill="#5E1F3C"/>
<path d="M225.196 15.7894C221.878 14.7353 218.9 12.8166 216.569 10.2305C215.712 10.4553 214.928 10.9024 214.299 11.5268C213.669 12.1512 213.215 12.9307 212.983 13.7865L212.276 10.9725L213.202 8.56593L217.43 7.0282L221.786 7.28193L224.769 9.48473L226.33 12.6986L225.196 15.7894Z" fill="#FF6D00"/>
<path d="M216.489 10.3151C215.732 9.5938 215.04 8.80786 214.42 7.96622L214.609 7.82782C215.219 8.6561 215.902 9.42805 216.65 10.1344L216.489 10.3151Z" fill="#5E1F3C"/>
<path d="M225.768 15.7433C225.73 15.7433 222.04 14.2056 220.121 11.4107L220.314 11.28C222.19 13.998 225.818 15.5088 225.853 15.5319L225.768 15.7433Z" fill="#5E1F3C"/>
<path d="M224.946 16.0009C225.011 16.0009 225.792 14.8245 226.826 15.5703C228.455 16.7582 226.887 20.2219 225.111 19.8414C223.335 19.1186 224.946 16.0009 224.946 16.0009Z" fill="#FCA886"/>
<path d="M225.965 19.0302L225.83 18.8418C226.599 18.2998 226.895 17.2733 226.633 16.7466C226.487 16.4583 226.203 16.3622 225.807 16.5083L225.734 16.2892C225.927 16.1917 226.152 16.1742 226.358 16.2403C226.564 16.3065 226.736 16.451 226.837 16.6428C227.149 17.2618 226.841 18.4151 225.965 19.0302Z" fill="#5E1F3C"/>
<path d="M225.472 18.369L225.296 18.2229C225.484 18.0232 225.711 17.8652 225.964 17.7592C226.217 17.6533 226.49 17.6017 226.764 17.6078V17.8384C226.524 17.835 226.286 17.8803 226.064 17.9714C225.842 18.0626 225.641 18.1979 225.472 18.369Z" fill="#5E1F3C"/>
<path d="M225.188 20.0298C225.288 20.1951 224.6 21.5175 224.515 21.7559C224.315 22.3056 224.131 22.8592 223.954 23.4205C223.652 24.3852 223.414 25.369 223.243 26.3653C222.941 27.8438 222.972 29.3708 223.331 30.8362C223.65 31.9588 224.208 32.9852 225.284 33.5273C227.075 34.4537 229.643 33.5734 231.05 32.2855C232.457 30.9977 230.981 26.7689 230.981 26.7689L226.326 21.9404L225.188 20.0298Z" fill="#FF6D00"/>
<path d="M228.525 30.1019L228.302 30.0519C229.428 25.1581 226.257 19.6376 226.226 19.5838L226.426 19.4684C226.456 19.5223 229.674 25.1235 228.525 30.1019Z" fill="#5E1F3C"/>
<path d="M217.465 20.8332C216.911 20.8308 216.358 20.7715 215.816 20.6563L215.862 20.4295C216.71 20.6234 217.586 20.6547 218.445 20.5218L218.491 20.7486C218.153 20.8087 217.809 20.8371 217.465 20.8332Z" fill="#5E1F3C"/>
<path d="M220.828 17.5107C221.085 17.5107 221.293 17.3027 221.293 17.046C221.293 16.7894 221.085 16.5814 220.828 16.5814C220.572 16.5814 220.364 16.7894 220.364 17.046C220.364 17.3027 220.572 17.5107 220.828 17.5107Z" fill="#5E1F3C"/>
<path d="M214.981 17.5107C215.238 17.5107 215.446 17.3027 215.446 17.046C215.446 16.7894 215.238 16.5814 214.981 16.5814C214.725 16.5814 214.517 16.7894 214.517 17.046C214.517 17.3027 214.725 17.5107 214.981 17.5107Z" fill="#5E1F3C"/>
<path d="M221.801 15.6164C221.529 15.4988 221.236 15.4381 220.94 15.4381C220.644 15.4381 220.351 15.4988 220.079 15.6164L219.979 15.4088C220.279 15.2796 220.602 15.2129 220.929 15.2129C221.255 15.2129 221.578 15.2796 221.878 15.4088L221.801 15.6164Z" fill="#5E1F3C"/>
<path d="M215.847 15.6164C215.575 15.4999 215.282 15.4398 214.986 15.4398C214.69 15.4398 214.397 15.4999 214.125 15.6164L214.025 15.4088C214.325 15.2796 214.648 15.2129 214.974 15.2129C215.301 15.2129 215.624 15.2796 215.924 15.4088L215.847 15.6164Z" fill="#5E1F3C"/>
<path d="M217.219 21.5329C217.013 21.5335 216.807 21.5063 216.608 21.4522L216.669 21.2292C217.048 21.3268 217.444 21.3268 217.823 21.2292L217.876 21.4522C217.661 21.5054 217.441 21.5325 217.219 21.5329Z" fill="#5E1F3C"/>
<path d="M217.488 19.7721C217.358 19.7414 216.22 19.4454 216.266 18.7918C216.304 18.1998 217.365 15.8432 217.419 15.7433L217.63 15.8355C217.246 16.6698 216.535 18.3651 216.508 18.8072C216.481 19.2493 217.254 19.4761 217.554 19.5492L217.488 19.7721Z" fill="#5E1F3C"/>
<path d="M213.629 19.8837C213.041 19.8837 212.466 19.7094 211.978 19.3828C211.489 19.0563 211.108 18.5922 210.883 18.0492C210.658 17.5062 210.6 16.9087 210.714 16.3322C210.829 15.7558 211.112 15.2263 211.527 14.8107C211.943 14.3951 212.472 14.1121 213.049 13.9974C213.625 13.8827 214.223 13.9416 214.766 14.1665C215.309 14.3914 215.773 14.7723 216.099 15.261C216.426 15.7497 216.6 16.3242 216.6 16.912C216.599 17.6998 216.286 18.4551 215.729 19.0122C215.172 19.5692 214.416 19.8826 213.629 19.8837ZM213.629 14.1671C213.086 14.1664 212.555 14.3267 212.103 14.6278C211.651 14.929 211.298 15.3574 211.09 15.8589C210.882 16.3604 210.827 16.9124 210.932 17.4451C211.038 17.9778 211.299 18.4673 211.683 18.8515C212.066 19.2358 212.555 19.4976 213.088 19.6038C213.62 19.71 214.172 19.6559 214.674 19.4483C215.176 19.2406 215.605 18.8888 215.907 18.4373C216.208 17.9859 216.369 17.455 216.369 16.912C216.369 16.1847 216.081 15.4871 215.567 14.9724C215.053 14.4578 214.356 14.1681 213.629 14.1671Z" fill="white"/>
<path d="M220.829 19.8837C220.241 19.8837 219.667 19.7094 219.178 19.3828C218.689 19.0563 218.308 18.5922 218.083 18.0492C217.859 17.5062 217.8 16.9087 217.914 16.3322C218.029 15.7558 218.312 15.2263 218.728 14.8107C219.143 14.3951 219.673 14.1121 220.249 13.9974C220.826 13.8827 221.423 13.9416 221.966 14.1665C222.509 14.3914 222.973 14.7723 223.3 15.261C223.626 15.7497 223.8 16.3242 223.8 16.912C223.799 17.6998 223.486 18.4551 222.929 19.0122C222.372 19.5692 221.617 19.8826 220.829 19.8837ZM220.829 14.1671C220.286 14.1664 219.755 14.3267 219.303 14.6278C218.851 14.929 218.499 15.3574 218.29 15.8589C218.082 16.3604 218.027 16.9124 218.133 17.4451C218.238 17.9778 218.499 18.4673 218.883 18.8515C219.266 19.2358 219.756 19.4976 220.288 19.6038C220.821 19.71 221.373 19.6559 221.874 19.4483C222.376 19.2406 222.805 18.8888 223.107 18.4373C223.409 17.9859 223.57 17.455 223.57 16.912C223.57 16.1847 223.281 15.4871 222.767 14.9724C222.253 14.4578 221.556 14.1681 220.829 14.1671Z" fill="white"/>
<path d="M218.142 15.8894C217.865 15.7144 217.544 15.6216 217.217 15.6216C216.89 15.6216 216.569 15.7144 216.293 15.8894L216.177 15.6895C216.489 15.4953 216.85 15.3923 217.217 15.3923C217.585 15.3923 217.945 15.4953 218.257 15.6895L218.142 15.8894Z" fill="white"/>
<path d="M42.8293 75.5381H4.26099V78.6136H42.8293V75.5381Z" fill="#FFB229"/>
<path d="M38.8661 89.297H8.22437V89.5277H38.8661V89.297Z" fill="#5E1F3C"/>
<path d="M36.2788 69.8254H10.8113L8.27417 46.6172L8.50482 46.5941L11.0189 69.5948H36.0712L38.5853 46.5941L38.8159 46.6172L36.2788 69.8254Z" fill="#5E1F3C"/>
<path d="M38.2124 37.6637H8.87391C7.67225 37.6637 6.69812 38.6379 6.69812 39.8396V49.585C6.69812 50.7867 7.67225 51.7609 8.87391 51.7609H38.2124C39.4141 51.7609 40.3882 50.7867 40.3882 49.585V39.8396C40.3882 38.6379 39.4141 37.6637 38.2124 37.6637Z" fill="#FFB229"/>
<path d="M40.5228 114.927L38.0087 78.729H9.08536L6.56744 114.927L6.33679 114.912L8.87008 78.4983H38.224L38.2317 78.6059L40.7534 114.912L40.5228 114.927Z" fill="#5E1F3C"/>
<path d="M25.7575 112.278H31.7043V103.817H25.7575V112.278Z" fill="#EF9D7F"/>
<path d="M21.4866 103.817H15.5397V112.278H21.4866V103.817Z" fill="#EF9D7F"/>
<path d="M37.5513 61.2256H9.63122L8.01284 65.5698C6.37139 71.1094 8.42032 75.861 13.7522 75.861H33.4303C38.7583 75.861 40.8111 71.1094 39.1697 65.5698L37.5513 61.2256Z" fill="#3C80BC"/>
<path d="M13.7098 105.682H22.709L23.5893 71.8245H10.5884L13.7098 105.682Z" fill="#3C80BC"/>
<path d="M24.3505 105.682H33.3535L36.4596 71.8245H23.5894L24.3505 105.682Z" fill="#3C80BC"/>
<path d="M22.7013 68.503C21.7249 66.9268 19.8912 65.812 17.8039 65.4814C16.6374 65.3075 15.447 65.3923 14.317 65.7298C13.187 66.0673 12.145 66.6492 11.265 67.4343L11.1112 67.2613C12.0173 66.451 13.0912 65.8509 14.2561 65.504C15.4211 65.1571 16.6483 65.0719 17.85 65.2545C18.868 65.3842 19.8464 65.7301 20.7197 66.2692C21.5929 66.8083 22.3407 67.528 22.9127 68.38L22.7013 68.503Z" fill="#5E1F3C"/>
<path d="M24.4927 68.503L24.2966 68.38C25.3076 66.7461 27.2028 65.5774 29.3594 65.2545C30.5625 65.0752 31.7904 65.1639 32.9553 65.5141C34.1202 65.8643 35.1933 66.4675 36.0982 67.2805L35.9444 67.4535C35.0653 66.668 34.0241 66.0859 32.8946 65.7483C31.7651 65.4108 30.5752 65.3262 29.4093 65.5006C27.3028 65.7966 25.4883 66.9268 24.4927 68.503Z" fill="#5E1F3C"/>
<path d="M10.8574 75.4305L10.473 70.8365L10.6998 70.8173L11.0842 75.4113L10.8574 75.4305Z" fill="#5E1F3C"/>
<path d="M36.0944 75.4843L35.8638 75.4612L36.3443 70.6404L36.5749 70.6635L36.0944 75.4843Z" fill="#5E1F3C"/>
<path d="M23.0358 103.644L13.2909 102.752L13.5254 105.682H22.8513L23.0358 103.644Z" fill="#1F6FAA"/>
<path d="M24.0392 103.644L33.7841 102.752L33.5496 105.682H24.2237L24.0392 103.644Z" fill="#1F6FAA"/>
<path d="M11.8993 113.451C11.8993 113.451 12.9295 109.153 17.5502 109.153C22.1709 109.153 23.0781 113.451 23.0781 113.451H11.8993Z" fill="white"/>
<path d="M21.7864 112.928H15.2513V108.592C16.8313 107.823 19.057 107.869 21.7864 108.592V112.928Z" fill="white"/>
<path d="M22.2477 111.875C21.8259 111.216 21.2694 110.653 20.6148 110.225C19.9602 109.796 19.2224 109.511 18.4497 109.388C17.6774 109.247 16.8845 109.267 16.1201 109.446C15.3557 109.624 14.6361 109.958 14.0059 110.426L13.8636 110.245C14.5177 109.759 15.2645 109.412 16.0579 109.225C16.8513 109.039 17.6744 109.017 18.4766 109.161C19.2816 109.288 20.0504 109.585 20.7322 110.032C21.4141 110.479 21.9935 111.065 22.4323 111.752L22.2477 111.875Z" fill="#5E1F3C"/>
<path d="M23.2626 113.451H11.8378C11.7592 113.451 11.6956 113.515 11.6956 113.593V114.777C11.6956 114.856 11.7592 114.92 11.8378 114.92H23.2626C23.3412 114.92 23.4048 114.856 23.4048 114.777V113.593C23.4048 113.515 23.3412 113.451 23.2626 113.451Z" fill="white"/>
<path d="M23.0742 113.336H11.8993V113.566H23.0742V113.336Z" fill="#5E1F3C"/>
<path d="M35.3716 113.451C35.3716 113.451 34.3299 109.153 29.7169 109.153C25.1039 109.153 24.1929 113.451 24.1929 113.451H35.3716Z" fill="white"/>
<path d="M25.4883 112.928H32.0233V108.592C30.4395 107.823 28.2176 107.869 25.5075 108.592L25.4883 112.928Z" fill="white"/>
<path d="M25.0232 111.875L24.8271 111.752C25.2663 111.064 25.8463 110.478 26.5289 110.031C27.2114 109.585 27.9809 109.288 28.7866 109.161C29.5888 109.016 30.4121 109.038 31.2055 109.224C31.999 109.411 32.7457 109.758 33.3996 110.245L33.2574 110.425C32.6282 109.957 31.9093 109.623 31.1454 109.444C30.3815 109.266 29.5891 109.246 28.8174 109.388C28.0454 109.511 27.3083 109.797 26.6544 110.226C26.0005 110.654 25.4446 111.216 25.0232 111.875Z" fill="#5E1F3C"/>
<path d="M24.0084 114.92H35.4332C35.5118 114.92 35.5754 114.856 35.5754 114.777V113.593C35.5754 113.515 35.5118 113.451 35.4332 113.451H24.0084C23.9298 113.451 23.8662 113.515 23.8662 113.593V114.777C23.8662 114.856 23.9298 114.92 24.0084 114.92Z" fill="white"/>
<path d="M35.3756 113.336H24.1968V113.566H35.3756V113.336Z" fill="#5E1F3C"/>
<path d="M17.0812 76.5454C16.1076 76.546 15.1439 76.3499 14.248 75.9687L14.3403 75.738C16.1125 76.4838 17.9884 76.4838 20.0758 75.738L20.1565 75.9533C19.1734 76.3274 18.1328 76.5277 17.0812 76.5454Z" fill="#5E1F3C"/>
<path d="M29.9053 76.5454C28.9773 76.5451 28.0599 76.3472 27.2144 75.9649L27.3066 75.7534C28.9903 76.4992 30.7663 76.4992 32.7653 75.7534L32.846 75.9687C31.9089 76.3377 30.9124 76.5331 29.9053 76.5454Z" fill="#5E1F3C"/>
<path d="M23.72 64.0243H23.4894V77.4718H23.72V64.0243Z" fill="#5E1F3C"/>
<path d="M23.4779 68.6645C23.1743 65.8466 19.6915 64.7202 19.6569 64.7086L19.7261 64.4895C19.7645 64.4895 23.3857 65.6736 23.7047 68.6375L23.4779 68.6645Z" fill="#5E1F3C"/>
<path d="M23.7238 66.8961L23.4969 66.8538C23.7084 65.7005 24.95 65.0277 25.0038 64.9969L25.1115 65.2007C25.1115 65.2007 23.916 65.8389 23.7238 66.8961Z" fill="#5E1F3C"/>
<path d="M10.7883 31.9587C13.0717 37.7252 29.3248 33.2581 29.3248 33.2581C33.1189 29.1293 36.9592 21.0523 33.2227 8.17761C33.2227 8.17761 15.9241 8.3237 15.9241 10.0998C16.2624 19.6453 6.17532 22.7746 10.7883 31.9587Z" fill="#5E1F3C"/>
<path d="M34.5989 26.5766C27.0413 33.3773 19.7528 32.6007 12.6527 26.469L18.319 24.6891V17.3041H28.8212V24.5391L34.5989 26.5766Z" fill="#FFB27D"/>
<path d="M13.8713 26.0846L12.6527 26.469C19.7528 32.6007 27.0413 33.3888 34.5989 26.5767L33.2112 26.0846C26.6108 26.9765 20.1449 27.0764 13.8713 26.0846Z" fill="white"/>
<path d="M9.65814 44.0453C10.2694 46.9094 11.092 49.7657 11.1535 52.6989C11.1804 53.9176 10.3001 58.2617 9.73887 60.9028C19.6145 62.3367 29.0788 62.4982 37.9703 60.9028C37.459 58.8268 36.7017 55.8129 36.3327 54.7903C35.7936 53.1655 35.6345 51.4386 35.8675 49.7427C36.0958 48.1113 36.4675 46.5032 36.9785 44.9372C37.4282 43.461 37.6781 41.8964 38.0395 40.3894L39.5771 34.0116C40.4036 31.3206 40.0538 28.0221 36.8862 26.8189L30.1282 25.6656C28.7136 26.8189 24.6618 28.6411 23.5663 28.6603C22.4707 28.6795 17.9999 26.1461 16.5315 24.9928L10.2002 26.815C7.04412 28.0183 6.69431 31.3052 7.50926 34.0078C8.23196 37.3549 8.94825 40.7008 9.65814 44.0453Z" fill="#3EBAA8"/>
<path d="M12.0877 60.2339L11.9685 60.034C12.0069 60.0109 15.7396 57.7658 15.6896 54.8518V54.748H15.7896C20.7075 54.1516 25.6794 54.1516 30.5972 54.748H30.6857V54.8364C30.8911 55.9174 31.3584 56.9316 32.0467 57.7901C32.7349 58.6487 33.6232 59.3254 34.6336 59.761L34.5413 59.9725C33.5113 59.5276 32.6036 58.8412 31.8949 57.9713C31.1863 57.1014 30.6977 56.0736 30.4704 54.9748C25.6339 54.3939 20.7453 54.3939 15.9088 54.9748C15.878 57.9503 12.2453 60.1378 12.0877 60.2339Z" fill="#5E1F3C"/>
<path d="M28.1215 61.564C24.9578 62.1022 21.5557 63.4477 18.1536 64.7855C17.331 65.2007 17.9845 66.3656 19.403 65.8735L21.8479 65.047L22.2861 65.3045L20.9829 66.3732C20.4178 66.8499 21.0175 67.7726 22.1708 67.3497C21.9824 67.911 23.0049 68.4146 23.9737 67.5804L25.2192 66.4271C25.2192 66.4271 27.1412 66.0926 27.7256 65.7351C28.3099 65.3776 30.4357 65.689 31.662 64.7086C33.5302 63.2094 29.4016 60.8297 28.1215 61.564Z" fill="#EF9D7F"/>
<path d="M16.6469 61.068C16.6469 61.068 20.9062 60.5298 22.9821 61.4256C25.0579 62.3213 26.757 64.5779 26.757 64.5779C27.0261 65.1315 26.0497 65.4006 25.3731 65.0469C25.4731 65.662 24.2429 65.9042 23.5933 65.3045C23.3242 66.0234 22.713 66.008 21.9864 65.5544L20.0643 64.3742C17.8809 64.1935 16.4239 65.4083 13.9137 65.0469C12.2799 62.9902 13.3102 60.4837 16.6469 61.068Z" fill="#EF9D7F"/>
<path d="M23.501 65.3814C22.8538 64.781 22.1525 64.2417 21.4059 63.7706L20.9177 63.4285L21.0523 63.2401L21.5366 63.5784C22.3001 64.0618 23.0169 64.6153 23.6778 65.2315L23.501 65.3814Z" fill="#5E1F3C"/>
<path d="M25.273 65.1123C24.9654 64.6625 23.9314 63.8052 22.9319 62.9749L22.5013 62.6173L22.6474 62.4405L23.0818 62.798C24.139 63.6784 25.1346 64.5049 25.4652 64.9816L25.273 65.1123Z" fill="#5E1F3C"/>
<path d="M22.2554 67.4266L22.0863 67.269C22.6984 66.6175 23.3731 66.0277 24.1006 65.5082L24.2237 65.7043C23.5142 66.2143 22.8551 66.791 22.2554 67.4266Z" fill="#5E1F3C"/>
<path d="M17.3541 60.7105L15.8165 59.761C15.6435 58.1656 10.9075 55.3284 7.86679 52.9526L11.1266 39.3052L9.62356 27.234C3.92653 29.3061 1.51625 39.9857 0.27075 50.3654C-0.259742 54.1598 -0.317404 57.2852 3.03085 59.1113C6.52133 61.4179 10.5961 64.8086 12.6412 64.5395L14.1789 65.5236L17.3541 60.7105Z" fill="#3EBAA8"/>
<path d="M8.07818 53.1872L7.80525 53.0565C6.94347 52.6355 6.00681 52.3896 5.04941 52.3328C4.09201 52.2761 3.13286 52.4097 2.22739 52.7259L2.13513 52.5144C3.90794 51.8874 5.85216 51.9534 7.57845 52.6989C7.19403 52.1454 6.14458 50.969 3.7343 50.6691L3.76121 50.4385C7.07871 50.8537 7.92826 52.8258 7.96286 52.9065L8.07818 53.1872Z" fill="#5E1F3C"/>
<path d="M7.72846 34.9067L7.50342 34.9573L9.81441 45.2459L10.0394 45.1954L7.72846 34.9067Z" fill="#5E1F3C"/>
<path d="M45.1435 50.8036C43.898 40.4239 42.3104 28.8909 37.3284 27.1571L34.2992 39.7358L37.559 53.3832C34.1723 55.809 29.1019 58.623 29.4325 60.1838L29.4517 60.2069L27.9141 61.1526L31.097 65.9734L32.7346 64.92V64.9431C34.6567 65.3275 38.7007 62.1329 42.3834 59.561C45.7317 57.7273 45.6779 54.5941 45.1435 50.8036Z" fill="#3EBAA8"/>
<path d="M37.3361 53.6177L37.4514 53.3409C37.486 53.2564 38.3355 51.2842 41.653 50.869L41.6838 51.0997C39.2735 51.3995 38.2241 52.5759 37.8396 53.1333C39.5654 52.3855 41.5105 52.3195 43.2829 52.9488L43.1907 53.1602C42.2858 52.8418 41.3266 52.7066 40.3689 52.7627C39.4113 52.8189 38.4744 53.0651 37.6128 53.487L37.3361 53.6177Z" fill="#5E1F3C"/>
<path d="M37.5872 35.4831L35.8871 48.4308L36.1154 48.4608L37.8155 35.5131L37.5872 35.4831Z" fill="#5E1F3C"/>
<path d="M22.8705 65.9888C22.5289 65.9655 22.2003 65.8485 21.921 65.6505L19.9989 64.4741L20.1219 64.2742L22.044 65.4544C22.1876 65.5698 22.3539 65.6538 22.532 65.7008C22.7102 65.7478 22.8962 65.7569 23.0781 65.7274C23.1767 65.6866 23.2646 65.6239 23.3353 65.5439C23.4059 65.464 23.4573 65.3689 23.4855 65.266L23.547 65.1046L23.6739 65.2199C23.8586 65.38 24.0852 65.484 24.327 65.5194C24.5688 65.5548 24.8158 65.5203 25.0386 65.4198C25.1089 65.3931 25.1685 65.344 25.2081 65.2801C25.2477 65.2162 25.2651 65.141 25.2577 65.0661L25.2231 64.8355L25.4268 64.9431C25.6086 65.0469 25.8152 65.0992 26.0245 65.0944C26.2337 65.0897 26.4378 65.0281 26.6147 64.9162C26.6542 64.8814 26.6799 64.8334 26.687 64.7811C26.694 64.7289 26.682 64.6758 26.6531 64.6317C26.0338 63.849 25.327 63.1396 24.5465 62.5174L24.6888 62.3328C25.4903 62.9724 26.2153 63.7026 26.8492 64.5087C26.9047 64.598 26.9277 64.7038 26.9144 64.8081C26.9011 64.9124 26.8523 65.009 26.7761 65.0815C26.5896 65.2124 26.3729 65.2938 26.1463 65.318C25.9197 65.3422 25.6906 65.3084 25.4806 65.2199C25.4588 65.308 25.4174 65.3901 25.3595 65.4599C25.3016 65.5298 25.2287 65.5858 25.1462 65.6236C24.9051 65.7335 24.6396 65.7792 24.3756 65.7563C24.1115 65.7334 23.8579 65.6427 23.6393 65.4929C23.5922 65.5971 23.5247 65.6909 23.4409 65.7688C23.357 65.8467 23.2585 65.9071 23.1511 65.9465C23.0604 65.9752 22.9657 65.9895 22.8705 65.9888Z" fill="#5E1F3C"/>
<path d="M15.7136 59.6913L12.548 64.4742L12.7403 64.6016L15.9059 59.8186L15.7136 59.6913Z" fill="#5E1F3C"/>
<path d="M17.2926 60.8066L15.6934 59.8302V59.7687C15.6473 58.4155 13.2562 56.8585 10.9459 55.3515L10.9075 55.3284L11.0343 55.1362L11.0689 55.1555C13.5061 56.7432 15.8049 58.2309 15.9202 59.6956L17.4156 60.6106L17.2926 60.8066Z" fill="#5E1F3C"/>
<path d="M29.5477 60.1392L29.3582 60.2706L32.6257 64.9845L32.8153 64.8531L29.5477 60.1392Z" fill="#5E1F3C"/>
<path d="M27.9601 61.2526L27.8409 61.0565L29.3286 60.1454C29.2364 58.7461 32.181 56.82 35.3024 54.7633L35.9598 54.3328L36.0866 54.525L35.4254 54.9786C32.4501 56.9277 29.3748 58.9383 29.5631 60.1954V60.2723L27.9601 61.2526Z" fill="#5E1F3C"/>
<path d="M18.0652 18.4075C18.0652 18.4075 10.1117 21.2753 10.8344 26.7574C11.7378 29.7214 18.0998 29.8328 23.9506 30.1865L23.5662 28.9486C23.5662 28.9486 17.8346 26.2153 17.8 25.335C17.8155 25.1894 17.8722 25.0514 17.9634 24.937C18.0547 24.8226 18.1767 24.7366 18.3151 24.6891V18.9534C18.2212 18.7764 18.1378 18.5942 18.0652 18.4075Z" fill="#3EBAA8"/>
<path d="M29.1018 18.4075C29.1018 18.4075 37.0438 21.2753 36.3288 26.7574C35.4254 29.7214 29.0634 29.8328 23.2164 30.1865L23.6008 28.9486C23.6008 28.9486 29.64 26.2153 29.6746 25.335C29.64 24.8506 28.8289 24.666 28.8289 24.666L28.852 18.9534C28.9481 18.7573 29.0326 18.5766 29.1018 18.4075Z" fill="#3EBAA8"/>
<path d="M16.7545 6.62836L17.0351 14.5362C17.0351 14.5362 17.4196 18.4958 18.5536 20.1104C19.3292 21.1967 20.3565 22.0789 21.5475 22.6815C22.7385 23.284 24.0577 23.589 25.3923 23.5704C28.1639 23.4819 30.1898 21.5675 31.4699 19.034C32.2557 17.4648 32.7753 15.7759 33.0076 14.0364C33.1959 12.6409 33.2344 6.92821 33.2344 6.92821L16.7545 6.62836Z" fill="#FFB27D"/>
<path d="M20.1833 13.8442C20.1833 14.3764 20.0255 14.8967 19.7298 15.3392C19.4341 15.7818 19.0139 16.1267 18.5222 16.3304C18.0305 16.534 17.4894 16.5873 16.9674 16.4835C16.4455 16.3797 15.966 16.1234 15.5897 15.747C15.2133 15.3707 14.957 14.8912 14.8532 14.3692C14.7494 13.8472 14.8027 13.3061 15.0063 12.8144C15.21 12.3226 15.5549 11.9024 15.9974 11.6067C16.4399 11.311 16.9602 11.1531 17.4924 11.1531C18.2061 11.1531 18.8905 11.4367 19.3952 11.9413C19.8998 12.446 20.1833 13.1305 20.1833 13.8442Z" fill="#FFB27D"/>
<path d="M33.7301 7.84706C33.7301 7.84706 32.6538 12.491 19.1877 11.5376C19.2957 11.0062 19.5255 10.5071 19.859 10.0795C20.1925 9.6519 20.6207 9.30751 21.1098 9.0734L18.9532 8.11616L28.0908 7.62793H32.2809L33.7301 7.84706Z" fill="#5E1F3C"/>
<path d="M20.3872 9.11564C19.5189 10.203 18.2929 10.9469 16.9274 11.2146L16.766 11.0532L16.8429 9.81146V9.20021L19.3031 9.01184L20.3872 9.11564Z" fill="#5E1F3C"/>
<path d="M25.0271 23.5512C22.7821 23.5512 20.3642 22.6785 18.9841 20.8409L19.1725 20.7025C21.3829 23.655 26.3726 24.0317 28.7521 22.2403L28.8905 22.4248C27.7532 23.1973 26.4013 23.5915 25.0271 23.5512Z" fill="#FFB27D"/>
<path d="M16.6852 15.505C15.728 14.8361 15.532 13.9403 15.6742 13.3252C15.7428 13.0256 15.8995 12.7533 16.1243 12.5437C16.349 12.334 16.6314 12.1965 16.9351 12.1489L16.9697 12.3757C16.7099 12.4123 16.4677 12.5284 16.2764 12.708C16.0851 12.8876 15.954 13.122 15.901 13.3791C15.778 13.9211 15.9549 14.713 16.8198 15.3012L16.6852 15.505Z" fill="#5E1F3C"/>
<path d="M17.1619 14.5323C16.9726 14.4122 16.7598 14.3336 16.5378 14.3017C16.3158 14.2699 16.0896 14.2856 15.8741 14.3478L15.7972 14.1287C16.0472 14.0537 16.3104 14.0342 16.5687 14.0714C16.8269 14.1085 17.074 14.2016 17.2926 14.344L17.1619 14.5323Z" fill="#5E1F3C"/>
<path d="M22.982 13.9519C22.9717 14.052 22.9915 14.1529 23.0387 14.2418C23.0859 14.3307 23.1585 14.4035 23.2473 14.4511C23.336 14.4986 23.4369 14.5186 23.537 14.5087C23.6372 14.4987 23.7321 14.4592 23.8098 14.3951C23.8874 14.331 23.9442 14.2453 23.973 14.1489C24.0018 14.0524 24.0013 13.9496 23.9715 13.8534C23.9417 13.7573 23.8839 13.6722 23.8056 13.6089C23.7273 13.5457 23.632 13.5072 23.5317 13.4982C23.4659 13.4919 23.3994 13.4986 23.3361 13.5179C23.2728 13.5373 23.2139 13.5689 23.1628 13.6111C23.1118 13.6532 23.0695 13.705 23.0385 13.7635C23.0075 13.822 22.9883 13.886 22.982 13.9519Z" fill="#5E1F3C"/>
<path d="M29.3324 13.9519C29.3221 14.052 29.3418 14.1529 29.389 14.2418C29.4363 14.3307 29.5089 14.4035 29.5976 14.4511C29.6863 14.4986 29.7872 14.5186 29.8874 14.5087C29.9875 14.4987 30.0825 14.4592 30.1601 14.3951C30.2377 14.331 30.2946 14.2453 30.3234 14.1489C30.3522 14.0524 30.3516 13.9496 30.3218 13.8534C30.292 13.7573 30.2343 13.6722 30.156 13.6089C30.0777 13.5457 29.9823 13.5072 29.8821 13.4982C29.8162 13.4919 29.7497 13.4986 29.6864 13.5179C29.6231 13.5373 29.5642 13.5689 29.5132 13.6111C29.4621 13.6532 29.4199 13.705 29.3888 13.7635C29.3578 13.822 29.3386 13.886 29.3324 13.9519Z" fill="#5E1F3C"/>
<path d="M28.7174 12.6294C28.7174 12.8101 30.947 12.8101 30.947 12.6294C30.947 12.4487 30.4473 12.3065 29.8322 12.3065C29.2171 12.3065 28.7174 12.4525 28.7174 12.6294Z" fill="#5E1F3C"/>
<path d="M22.3707 12.6294C22.3707 12.8101 24.6003 12.8101 24.6003 12.6294C24.6003 12.4487 24.1006 12.3065 23.4855 12.3065C22.8705 12.3065 22.3707 12.4525 22.3707 12.6294Z" fill="#5E1F3C"/>
<path d="M26.6608 16.37L26.5916 16.1508C27.0262 16.0448 27.4361 15.8555 27.7987 15.5934C27.4223 14.7307 26.9975 13.89 26.5262 13.0754L26.7261 12.9639C27.0337 13.5175 28.0293 15.3397 28.0293 15.5934C28.0293 15.8471 27.2835 16.17 26.6608 16.37Z" fill="#5E1F3C"/>
<path d="M26.8991 18.3921C26.2537 18.3866 25.6103 18.321 24.9771 18.196L25.0193 17.9692C26.1827 18.2279 27.3887 18.2279 28.5521 17.9692L28.6098 18.196C28.0496 18.3305 27.4752 18.3963 26.8991 18.3921Z" fill="#5E1F3C"/>
<path d="M26.8377 19.0879C26.5203 19.0843 26.2038 19.0521 25.8921 18.9918L25.9344 18.765C26.4875 18.8888 27.0612 18.8888 27.6143 18.765L27.6719 18.9879C27.399 19.0554 27.1189 19.089 26.8377 19.0879Z" fill="#5E1F3C"/>
<path d="M33.4956 8.48135C33.4956 8.48135 32.7268 2.22276 31.02 1.40392C29.8668 0.919531 26.0226 0.100688 24.6156 0.00457913C23.2087 -0.0915293 18.5457 1.35394 17.8499 1.64227C17.1542 1.93059 15.7241 5.87104 15.9279 10.0998L17.2349 9.89222C22.2669 8.32757 27.7409 8.00849 33.4956 8.48135Z" fill="#D85B6B"/>
<path d="M25.1271 4.66005C25.1271 5.01665 25.2328 5.36524 25.4309 5.66174C25.629 5.95824 25.9106 6.18934 26.24 6.3258C26.5695 6.46226 26.932 6.49797 27.2817 6.4284C27.6314 6.35883 27.9527 6.18711 28.2048 5.93496C28.457 5.68281 28.6287 5.36154 28.6982 5.0118C28.7678 4.66205 28.7321 4.29953 28.5956 3.97008C28.4592 3.64062 28.2281 3.35903 27.9316 3.16092C27.6351 2.9628 27.2866 2.85706 26.93 2.85706C26.4518 2.85706 25.9932 3.04701 25.6551 3.38514C25.317 3.72327 25.1271 4.18187 25.1271 4.66005Z" fill="white"/>
<path d="M18.4343 9.73078H18.2036C18.2036 9.46937 18.292 3.34533 18.6726 2.2843C19.0032 1.34243 20.5678 0.681207 20.6331 0.654297L20.7254 0.865734C20.7254 0.865734 19.1877 1.51543 18.8917 2.36118C18.5227 3.38378 18.4381 9.66543 18.4343 9.73078Z" fill="#5E1F3C"/>
<path d="M32.5346 9.31552L31.2545 2.48798C31.1157 2.03704 30.8485 1.6363 30.4857 1.33468L30.6433 1.16168C31.0369 1.50168 31.3251 1.94722 31.4737 2.44569L32.7615 9.28477L32.5346 9.31552Z" fill="#5E1F3C"/>
<path d="M35.4293 7.47414C34.7604 8.74662 33.1805 9.89608 33.1805 9.89608C33.1805 9.89608 33.8763 7.39726 17.1735 9.89608C17.1735 9.89608 20.218 3.85662 30.7817 4.20261C35.7791 4.48709 36.1635 6.05558 35.4293 7.47414Z" fill="#D85B6B"/>
<path d="M18.0384 9.95372L17.8385 9.83839C17.8693 9.78073 21.1291 4.3333 30.8432 4.64084C33.2766 4.79077 34.6874 5.24441 35.1064 6.02865C35.4409 6.62837 35.1487 7.31266 34.8988 7.77013L34.6951 7.66249C35.0526 7.00511 35.1179 6.50919 34.9027 6.12476C34.5183 5.42509 33.1459 4.99837 30.8317 4.85613C21.2598 4.56396 18.0692 9.8999 18.0384 9.95372Z" fill="#5E1F3C"/>
<path d="M17.2772 9.94602L17.0696 9.84222C17.1003 9.78071 20.2756 3.74125 30.7855 4.07571C31.4152 4.10676 32.0427 4.17221 32.6653 4.27177L32.6269 4.49859C32.0848 4.41017 31.4736 4.34482 30.774 4.30253C20.4178 3.98345 17.3079 9.88835 17.2772 9.94602Z" fill="#5E1F3C"/>
<path d="M23.5662 30.3056L22.363 30.1442C16.9581 29.4368 11.8492 28.7641 10.7537 26.8111L10.9536 26.6996C11.9953 28.5526 17.281 29.2446 22.3937 29.9174L23.547 30.0711C24.2543 29.9481 24.977 29.8289 25.6997 29.7098C30.2396 28.9409 34.9257 28.172 36.248 26.6804L36.421 26.8342C35.0525 28.3911 30.528 29.1408 25.7381 29.9366L23.57 30.3018L23.5662 30.3056Z" fill="#5E1F3C"/>
<path d="M17.7731 25.5579C17.5738 25.402 17.4085 25.2072 17.2871 24.9852C17.1657 24.7633 17.0908 24.5189 17.0671 24.267C17.0433 24.0151 17.0712 23.7611 17.1489 23.5203C17.2267 23.2796 17.3528 23.0572 17.5194 22.8669L17.6924 23.0207C17.5426 23.1872 17.4293 23.3831 17.3595 23.5958C17.2897 23.8086 17.2651 24.0336 17.2872 24.2564C17.3092 24.4793 17.3775 24.6951 17.4877 24.89C17.5978 25.085 17.7474 25.2549 17.9269 25.3888L17.7731 25.5579Z" fill="#5E1F3C"/>
<path d="M29.6939 25.5617L29.5439 25.3849C30.4704 24.616 29.7323 23.555 29.7016 23.5088L29.8899 23.3743C29.8899 23.3743 30.7818 24.6391 29.6939 25.5617Z" fill="#5E1F3C"/>
<path d="M22.0632 29.0563H21.8325V40.4317H22.0632V29.0563Z" fill="white"/>
<path d="M21.9479 41.2236C21.8989 41.2236 21.852 41.2041 21.8174 41.1695C21.7828 41.1349 21.7633 41.088 21.7633 41.039V40.4047C21.7628 40.3803 21.7672 40.3561 21.7763 40.3335C21.7854 40.3109 21.799 40.2903 21.8162 40.2731C21.8335 40.2558 21.854 40.2423 21.8766 40.2332C21.8993 40.2241 21.9235 40.2197 21.9479 40.2202C21.9968 40.2202 22.0437 40.2396 22.0783 40.2742C22.1129 40.3089 22.1324 40.3558 22.1324 40.4047V41.039C22.1314 41.0877 22.1116 41.134 22.0773 41.1684C22.0429 41.2028 21.9965 41.2226 21.9479 41.2236Z" fill="#5E1F3C"/>
<path d="M25.1308 29.0947H24.9001V38.1289H25.1308V29.0947Z" fill="white"/>
<path d="M25.0157 38.9246C24.9671 38.9237 24.9207 38.9039 24.8863 38.8695C24.8519 38.8351 24.8322 38.7887 24.8312 38.7401V38.1058C24.8312 38.0565 24.8505 38.0092 24.885 37.9739C24.9195 37.9387 24.9664 37.9184 25.0157 37.9174C25.0403 37.9174 25.0646 37.9223 25.0872 37.9318C25.1099 37.9413 25.1304 37.9553 25.1476 37.9728C25.1647 37.9904 25.1783 38.0112 25.1873 38.034C25.1963 38.0568 25.2007 38.0812 25.2002 38.1058V38.7401C25.2002 38.789 25.1808 38.836 25.1462 38.8706C25.1116 38.9052 25.0646 38.9246 25.0157 38.9246Z" fill="#5E1F3C"/>
<path d="M11.2542 52.5857L11.0455 52.6839L11.9212 54.5449L12.1299 54.4467L11.2542 52.5857Z" fill="#5E1F3C"/>
<path d="M35.6648 51.5108L34.4928 54.4909L34.7074 54.5753L35.8795 51.5952L35.6648 51.5108Z" fill="#5E1F3C"/>
<path d="M149.47 75.542H110.901V78.6175H149.47V75.542Z" fill="#F99746"/>
<path d="M145.126 89.3009H113.104V89.5316H145.126V89.3009Z" fill="#5E1F3C"/>
<path d="M145.126 78.5021H113.104V78.7328H145.126V78.5021Z" fill="#5E1F3C"/>
<path d="M142.919 69.8332H117.452L114.915 46.6249L115.142 46.598L117.66 69.6025H142.712L145.226 46.598L145.457 46.6249L142.919 69.8332Z" fill="#5E1F3C"/>
<path d="M144.853 37.6675H115.514C114.313 37.6675 113.339 38.6417 113.339 39.8434V49.5888C113.339 50.7905 114.313 51.7647 115.514 51.7647H144.853C146.055 51.7647 147.029 50.7905 147.029 49.5888V39.8434C147.029 38.6417 146.055 37.6675 144.853 37.6675Z" fill="#F99746"/>
<path d="M112.977 103.871L114.046 111.36H119.977L119.485 103.556L112.977 103.871Z" fill="#FCA886"/>
<path d="M148.432 103.871L147.363 111.36H141.432L141.924 103.556L148.432 103.871Z" fill="#FCA886"/>
<path d="M151.084 63.2247L149.77 60.7451L142.35 60.0262L137.714 62.5827L133.078 63.3861L130.714 63.8436L128.354 63.3861L123.718 62.5827L119.082 60.0262L111.64 60.7451L110.325 63.2285C105.489 64.7278 103.69 68.3838 104.805 73.4083L111.52 105.747L120.181 104.805L117.702 75.5458H143.707L141.197 105.032L149.877 105.743L156.593 73.4045C157.727 68.3799 155.92 64.724 151.084 63.2247Z" fill="#060D6D"/>
<path d="M117.59 75.5613L116.637 69.4372C116.486 68.7603 116.203 68.1201 115.803 67.5535C115.359 66.9275 114.775 66.4137 114.097 66.0527C113.42 65.6916 112.668 65.4934 111.901 65.4737V65.2469C113.07 65.2925 114.19 65.7251 115.086 66.4766C115.982 67.2281 116.603 68.2559 116.852 69.3988L117.802 75.5267L117.59 75.5613Z" fill="#824865"/>
<path d="M143.788 75.5613L143.558 75.5267L144.511 69.4026C144.758 68.2588 145.379 67.2296 146.275 66.4773C147.172 65.725 148.293 65.2921 149.462 65.2469V65.4737C148.695 65.4925 147.942 65.6904 147.265 66.0514C146.588 66.4125 146.004 66.9269 145.56 67.5535C145.157 68.1201 144.872 68.762 144.722 69.4411L143.788 75.5613Z" fill="#824865"/>
<path d="M128.565 69.0604C127.231 68.8682 127.216 65.5044 127.216 65.3583H127.447C127.447 66.281 127.654 68.6952 128.6 68.8182L128.565 69.0604Z" fill="#824865"/>
<path d="M128.743 65.254L128.512 65.265L129.003 75.5485L129.233 75.5375L128.743 65.254Z" fill="#824865"/>
<path d="M129.088 73.1008L129.011 72.9125C127.212 68.6837 119.739 66.6962 119.662 66.6769L119.72 66.454C120.028 66.5347 127.178 68.43 129.142 72.6472C129.63 72.0436 131.548 69.8716 134.324 69.3065L134.37 69.5333C131.245 70.1714 129.23 72.9086 129.211 72.9355L129.088 73.1008Z" fill="#824865"/>
<path d="M128.873 73.5814L128.854 73.5775L117.098 71.8629L117.129 71.6323L128.869 73.3468L144.307 70.2867L144.353 70.5136L128.873 73.5814Z" fill="#824865"/>
<path d="M108.43 113.055C108.43 113.055 109.679 107.592 115.291 107.592C120.904 107.592 122 113.055 122 113.055H108.43Z" fill="white"/>
<path d="M120.439 112.39H112.52V106.877C114.442 105.874 117.133 105.958 120.431 106.877L120.439 112.39Z" fill="white"/>
<path d="M121.015 111.044C120.514 110.221 119.845 109.513 119.052 108.965C118.258 108.418 117.359 108.044 116.411 107.869C115.463 107.693 114.489 107.72 113.552 107.946C112.615 108.173 111.737 108.594 110.974 109.184L110.828 109.003C111.617 108.394 112.525 107.959 113.493 107.725C114.461 107.491 115.468 107.464 116.447 107.645C117.427 107.827 118.357 108.212 119.177 108.778C119.997 109.343 120.689 110.075 121.207 110.925L121.015 111.044Z" fill="#5E1F3C"/>
<path d="M122.223 113.055H108.361C108.263 113.055 108.184 113.134 108.184 113.232V114.743C108.184 114.84 108.263 114.92 108.361 114.92H122.223C122.32 114.92 122.399 114.84 122.399 114.743V113.232C122.399 113.134 122.32 113.055 122.223 113.055Z" fill="white"/>
<path d="M122 112.94H108.43V113.17H122V112.94Z" fill="#5E1F3C"/>
<path d="M152.987 113.055C152.987 113.055 151.738 107.592 146.125 107.592C140.513 107.592 139.417 113.055 139.417 113.055H152.987Z" fill="white"/>
<path d="M140.986 112.39H148.885V106.877C146.963 105.874 144.273 105.958 140.974 106.877L140.986 112.39Z" fill="white"/>
<path d="M140.401 111.044L140.205 110.925C140.724 110.075 141.415 109.343 142.236 108.778C143.056 108.212 143.986 107.827 144.965 107.645C145.945 107.464 146.952 107.491 147.92 107.725C148.888 107.959 149.796 108.394 150.585 109.003L150.438 109.184C149.676 108.594 148.799 108.172 147.862 107.944C146.926 107.717 145.952 107.689 145.005 107.864C144.057 108.038 143.157 108.411 142.363 108.957C141.569 109.503 140.899 110.21 140.398 111.033L140.401 111.044Z" fill="#5E1F3C"/>
<path d="M139.194 114.916H153.056C153.154 114.916 153.233 114.837 153.233 114.739V113.228C153.233 113.13 153.154 113.051 153.056 113.051H139.194C139.097 113.051 139.017 113.13 139.017 113.228V114.739C139.017 114.837 139.097 114.916 139.194 114.916Z" fill="white"/>
<path d="M152.987 112.94H139.417V113.17H152.987V112.94Z" fill="#5E1F3C"/>
<path d="M148.247 58.6153C148.247 58.6153 146.929 58.6153 146.125 59.3304C146.125 59.3304 143.761 59.3957 143.069 60.6682C143.012 61.1295 143.131 61.4371 143.473 61.5601C142.239 63.3208 143.531 63.7744 144.407 62.9863C144.791 63.2785 145.641 62.9863 147.059 62.0483C148.106 62.2888 149.187 62.3344 150.25 62.1829C150.488 62.7826 150.765 63.094 151.719 63.2362C152.672 63.3785 153.087 62.7557 153.368 61.5947C153.368 61.5947 153.102 58.3039 152.983 58.1348C152.864 57.9656 148.247 58.6153 148.247 58.6153Z" fill="#FCA886"/>
<path d="M120.973 24.6083C113.642 25.2503 109.798 29.902 109.798 29.902C106.896 32.4931 105.093 35.4878 105.093 38.6517C104.936 45.4978 105.451 52.3427 106.631 59.0882C107.569 63.7552 113.05 65.1354 116.441 60.6913C118.966 56.205 121.388 47.536 123.007 39.5897C123.007 39.5897 117.302 37.2139 117.213 37.1524L112.962 45.2947L114.611 36.1106L115.653 29.9904L116.929 27.7607L117.748 26.2883L119.408 25.9769L120.973 24.6083Z" fill="white"/>
<path d="M115.441 60.8451C115.441 60.8451 121.015 66.1502 128.638 65.2584C136.261 64.3665 143.35 60.3107 143.35 60.3107L139.337 53.487C139.337 53.487 140.409 44.645 140.228 42.1654C140.048 39.6858 140.763 38.5095 140.763 38.5095L152.134 45.1948L147.94 58.4385C149.635 58.9536 152.307 60.8566 154.129 62.156L160.01 46.5826C161.283 42.8151 160.057 39.9818 157.427 37.7406L143.973 27.4185C141.632 25.8116 138.591 24.4853 135.9 24.097C132.939 23.757 129.953 23.6734 126.978 23.8472L120.981 23.5165L113.677 27.6761L109.752 38.6748L111.774 49.2582L114.388 55.6783L115.441 60.8451Z" fill="white"/>
<path d="M116.026 61.3679L115.864 61.2064C116.49 60.5732 116.987 59.8252 117.329 59.0036L123.33 40.7891L123.549 40.8622L117.544 59.0843C117.192 59.9371 116.676 60.7128 116.026 61.3679Z" fill="#5E1F3C"/>
<path d="M116.025 38.3167L107.57 55.9333L107.778 56.0331L116.233 38.4165L116.025 38.3167Z" fill="#5E1F3C"/>
<path d="M113.25 40.6277C112.727 34.6613 107.703 33.6387 107.649 33.6271L107.695 33.4003C107.745 33.4003 112.943 34.4691 113.462 40.6085L113.25 40.6277Z" fill="#5E1F3C"/>
<path d="M141.197 38.9054L140.69 38.6094C139.316 37.7654 138.314 36.4312 137.887 34.8766L138.11 34.8266C138.488 36.132 139.273 37.2824 140.351 38.1097C139.833 37.2298 139.556 36.2285 139.548 35.2072H139.779C139.801 36.3644 140.17 37.4883 140.84 38.4326L141.197 38.9054Z" fill="#5E1F3C"/>
<path d="M152.038 45.5331L152.007 45.2063C151.963 44.4861 152.105 43.7667 152.421 43.118C152.737 42.4693 153.216 41.9134 153.81 41.5042L153.937 41.6964C153.421 42.0449 152.997 42.5121 152.7 43.0587C152.403 43.6053 152.242 44.2153 152.23 44.8372C154.064 42.373 157.17 42.2885 157.2 42.2885V42.5191C157.17 42.5191 153.941 42.6114 152.203 45.2601L152.038 45.5331Z" fill="#5E1F3C"/>
<path d="M143.55 61.6408L143.392 61.4755C144.308 60.6592 145.375 60.0297 146.533 59.6226L146.606 59.8378C145.483 60.2415 144.446 60.8531 143.55 61.6408Z" fill="#5E1F3C"/>
<path d="M144.319 63.0517C144.319 63.0517 143.934 62.5712 144.645 61.9561C145.612 61.1664 146.661 60.4833 147.775 59.9186L147.878 60.1223C146.786 60.6828 145.756 61.3554 144.803 62.1291C144.276 62.5904 144.496 62.8979 144.507 62.8979L144.319 63.0517Z" fill="#5E1F3C"/>
<path d="M135.627 57.0354L135.431 56.9008L135.458 56.8662C135.981 56.1512 137.268 54.5288 138.733 53.6639C137.84 53.7547 136.969 54.0019 136.161 54.3943L136.05 54.1944C137.349 53.4755 139.229 53.3794 139.31 53.3755L139.925 53.3486L139.36 53.5985C137.734 54.3174 136.219 56.2165 135.646 57.0008L135.627 57.0354Z" fill="#5E1F3C"/>
<path d="M127.95 64.3203C127.385 64.3203 127.043 64.3203 127.028 64.3203C125.874 64.1819 124.614 63.3477 123.38 62.5404C122.608 61.9736 121.765 61.5108 120.873 61.1641C119.763 60.8981 118.605 60.8981 117.494 61.1641L117.437 60.9412C118.586 60.6601 119.786 60.6601 120.935 60.9412C121.68 61.1526 122.568 61.7331 123.506 62.3482C124.717 63.1401 125.967 63.959 127.051 64.0897C127.093 64.0897 132.106 64.3434 135.489 62.8672L135.581 63.0786C133.032 64.1781 129.58 64.3203 127.95 64.3203Z" fill="#5E1F3C"/>
<path d="M119.497 27.457C119.497 30.9861 125.898 31.0784 128.119 27.457V21.1254H119.497V27.457Z" fill="#FCA886"/>
<path d="M128.127 22.0096C130.118 18.1652 132.502 9.05032 128.066 8.90424L114.453 8.95806C114.453 8.95806 111.928 8.54287 114.48 16.6467L128.127 22.0096Z" fill="#5E1F3C"/>
<path d="M128.127 22.0096C127.653 23.0583 127.047 24.0427 126.324 24.9389C125.698 25.7814 124.887 26.4702 123.955 26.9531C123.022 27.436 121.992 27.7003 120.942 27.7261C119.282 27.803 117.729 27.3878 116.599 26.0884C114.342 23.4973 114.569 20.1258 114.55 16.8851C114.55 14.7579 114.565 12.6319 114.596 10.5073L124.079 8.26605L126.355 9.56544L127.685 12.0643L128.096 14.7553L128.127 22.0096Z" fill="#FCA886"/>
<path d="M127.52 18.0191C126.063 17.7116 125.778 13.9826 125.578 11.1685C125.578 11.1685 116.333 11.1685 114.688 11.2069C113.193 11.2339 112.07 9.44624 112.235 7.53944C112.416 5.34433 114.157 5.32126 115.926 5.31357C117.694 5.30588 126.174 6.60143 126.174 6.60143C127.55 6.80518 128.65 7.45871 128.977 9.07333L128.592 16.5544L127.52 18.0191Z" fill="#5E1F3C"/>
<path d="M127.312 17.0734L127.358 17.0042C127.521 16.7513 127.736 16.5363 127.989 16.3738C128.25 16.2348 128.546 16.173 128.841 16.1954C129.137 16.2179 129.419 16.3237 129.657 16.5006C131.714 18.0384 129.757 22.4786 127.52 22.0019C126.616 21.6174 126.389 20.6833 126.47 19.7798C126.545 18.8262 126.833 17.9014 127.312 17.0734Z" fill="#FCA886"/>
<path d="M128.573 20.9254L128.435 20.7371C129.43 20.022 129.792 18.6688 129.438 17.9845C129.246 17.6001 128.877 17.504 128.365 17.677L128.292 17.4617C128.904 17.2503 129.396 17.404 129.642 17.8807C130.049 18.6611 129.665 20.1297 128.573 20.9254Z" fill="#5E1F3C"/>
<path d="M127.943 20.0835L127.762 19.9375C127.996 19.689 128.279 19.4922 128.594 19.3598C128.908 19.2273 129.247 19.1622 129.588 19.1686V19.3992C129.281 19.394 128.977 19.4521 128.694 19.5699C128.411 19.6876 128.155 19.8625 127.943 20.0835Z" fill="#5E1F3C"/>
<path d="M111.763 7.83166C111.779 8.48606 111.987 9.12116 112.363 9.65721C112.739 10.1932 113.265 10.6063 113.874 10.8446C114.484 11.0828 115.15 11.1356 115.79 10.9962C116.429 10.8569 117.014 10.5317 117.469 10.0614C117.924 9.59119 118.231 8.99688 118.349 8.35314C118.468 7.70939 118.394 7.04493 118.136 6.4432C117.878 5.84147 117.449 5.32929 116.901 4.97101C116.353 4.61273 115.712 4.42431 115.057 4.42942C114.169 4.4446 113.324 4.81135 112.706 5.44919C112.089 6.08704 111.749 6.94387 111.763 7.83166Z" fill="#5E1F3C"/>
<path d="M121.976 17.4997C121.979 17.5882 122.007 17.674 122.058 17.7465C122.109 17.8189 122.18 17.8747 122.262 17.9068C122.345 17.939 122.435 17.946 122.522 17.9271C122.608 17.9081 122.687 17.8641 122.749 17.8004C122.81 17.7368 122.851 17.6564 122.867 17.5693C122.883 17.4822 122.873 17.3923 122.838 17.311C122.804 17.2296 122.745 17.1604 122.671 17.112C122.597 17.0635 122.51 17.0381 122.422 17.0388C122.362 17.0398 122.304 17.0525 122.249 17.0763C122.194 17.1 122.145 17.1342 122.104 17.177C122.062 17.2198 122.03 17.2703 122.008 17.3257C121.986 17.381 121.975 17.4402 121.976 17.4997Z" fill="#5E1F3C"/>
<path d="M115.826 17.5228C115.827 17.6099 115.855 17.6947 115.904 17.7664C115.954 17.8381 116.023 17.8935 116.105 17.9256C116.186 17.9577 116.274 17.9652 116.36 17.9469C116.445 17.9287 116.523 17.8857 116.584 17.8233C116.644 17.7608 116.685 17.6818 116.701 17.5961C116.717 17.5104 116.708 17.4218 116.673 17.3417C116.639 17.2615 116.582 17.1932 116.509 17.1455C116.436 17.0978 116.351 17.0727 116.264 17.0734C116.205 17.0739 116.148 17.086 116.094 17.1089C116.04 17.1318 115.992 17.1651 115.951 17.2069C115.91 17.2486 115.878 17.2981 115.857 17.3523C115.835 17.4065 115.825 17.4644 115.826 17.5228Z" fill="#5E1F3C"/>
<path d="M121.557 15.6626L121.454 15.455C121.802 15.3007 122.179 15.2211 122.561 15.2211C122.942 15.2211 123.319 15.3007 123.668 15.455L123.591 15.6741C123.272 15.5295 122.926 15.4537 122.575 15.4517C122.225 15.4498 121.878 15.5216 121.557 15.6626Z" fill="#5E1F3C"/>
<path d="M115.268 15.0282L115.165 14.8206C115.513 14.6664 115.89 14.5867 116.272 14.5867C116.653 14.5867 117.03 14.6664 117.379 14.8206L117.302 15.0398C116.983 14.8954 116.637 14.8198 116.286 14.8178C115.936 14.8158 115.589 14.8875 115.268 15.0282Z" fill="#5E1F3C"/>
<path d="M119.351 23.3359C119.101 23.3352 118.854 23.2801 118.628 23.1744L118.724 22.9668C118.932 23.0599 119.158 23.108 119.385 23.108C119.613 23.108 119.839 23.0599 120.047 22.9668L120.131 23.1782C119.884 23.2805 119.619 23.3341 119.351 23.3359Z" fill="#5E1F3C"/>
<path d="M120.727 21.9533L118.117 21.9615L118.117 22.1922L120.728 22.184L120.727 21.9533Z" fill="#5E1F3C"/>
<path d="M123.825 18.8918H121.027C120.89 18.8923 120.754 18.8658 120.627 18.8136C120.5 18.7615 120.385 18.6848 120.288 18.588C120.191 18.4912 120.114 18.3762 120.061 18.2496C120.008 18.1229 119.981 17.9871 119.981 17.85V17.1157C119.981 16.9786 120.008 16.8428 120.061 16.7162C120.114 16.5895 120.191 16.4745 120.288 16.3777C120.385 16.2809 120.5 16.2042 120.627 16.1521C120.754 16.1 120.89 16.0734 121.027 16.0739H123.825C124.102 16.0739 124.367 16.1837 124.562 16.3791C124.757 16.5744 124.867 16.8394 124.867 17.1157V17.85C124.867 18.1263 124.757 18.3913 124.562 18.5867C124.367 18.7821 124.102 18.8918 123.825 18.8918ZM121.027 16.3046C120.811 16.3046 120.605 16.3899 120.452 16.5419C120.299 16.6939 120.213 16.9003 120.212 17.1157V17.85C120.212 17.9568 120.233 18.0626 120.274 18.1613C120.315 18.26 120.375 18.3496 120.451 18.4249C120.527 18.5003 120.616 18.56 120.715 18.6005C120.814 18.6411 120.92 18.6617 121.027 18.6612H123.825C124.041 18.6612 124.247 18.5757 124.399 18.4236C124.551 18.2715 124.637 18.0651 124.637 17.85V17.1157C124.636 16.9009 124.55 16.6952 124.398 16.5433C124.246 16.3914 124.04 16.3056 123.825 16.3046H121.027Z" fill="white"/>
<path d="M117.663 18.8918H114.865C114.588 18.8918 114.323 18.782 114.128 18.5867C113.933 18.3913 113.823 18.1263 113.823 17.85V17.1157C113.823 16.8394 113.933 16.5744 114.128 16.3791C114.323 16.1837 114.588 16.0739 114.865 16.0739H117.663C117.94 16.0739 118.205 16.1837 118.4 16.3791C118.595 16.5744 118.705 16.8394 118.705 17.1157V17.85C118.705 18.1263 118.595 18.3913 118.4 18.5867C118.205 18.782 117.94 18.8918 117.663 18.8918ZM114.865 16.3046C114.649 16.3046 114.443 16.3899 114.29 16.5419C114.137 16.6939 114.051 16.9002 114.05 17.1157V17.85C114.05 17.9568 114.071 18.0626 114.112 18.1613C114.153 18.26 114.213 18.3496 114.289 18.4249C114.364 18.5003 114.454 18.56 114.553 18.6005C114.652 18.6411 114.758 18.6617 114.865 18.6612H117.663C117.878 18.6612 118.085 18.5757 118.237 18.4236C118.389 18.2714 118.474 18.0651 118.474 17.85V17.1157C118.473 16.9009 118.388 16.6952 118.236 16.5433C118.084 16.3914 117.878 16.3056 117.663 16.3046H114.865Z" fill="white"/>
<path d="M119.585 20.0874C119.439 20.049 118.128 19.703 118.182 19.0802C118.232 18.5266 119.497 16.5968 119.643 16.3892L119.835 16.516C119.451 17.0965 118.451 18.6958 118.413 19.1109C118.386 19.4339 119.151 19.7491 119.643 19.8798L119.585 20.0874Z" fill="#5E1F3C"/>
<path d="M120.166 16.7697C119.914 16.6318 119.631 16.5595 119.343 16.5595C119.056 16.5595 118.773 16.6318 118.521 16.7697L118.417 16.5621C118.702 16.4087 119.02 16.3284 119.343 16.3284C119.667 16.3284 119.985 16.4087 120.27 16.5621L120.166 16.7697Z" fill="white"/>
<path d="M127.039 17.4425H124.752V17.6732H127.039V17.4425Z" fill="white"/>
<path d="M120.473 27.8146C120.154 27.8146 119.824 27.8146 119.485 27.7684L119.505 27.5378C123.011 27.8607 125.521 26.5421 127.193 23.5089L127.397 23.6204C125.859 26.4075 123.537 27.8146 120.473 27.8146Z" fill="#5E1F3C"/>
<path d="M116.929 38.5979L118.059 36.0722C118.059 36.0722 117.167 32.4739 117.494 31.582C117.821 30.6901 118.059 28.8333 117.613 27.5647C117.613 27.5647 118.44 26.619 119.355 28.3566C120.124 29.8943 119.532 30.6632 119.739 30.9515C120.623 29.7035 121.649 28.5619 122.795 27.5493C123.08 27.3073 123.426 27.1471 123.795 27.0855C124.163 27.0239 124.542 27.0633 124.89 27.1995C124.89 27.1995 126.094 27.8069 125.782 28.8179C125.782 28.8179 125.705 29.2024 125.052 29.0563C124.398 28.9102 124.341 29.2062 124.341 29.2062C124.601 29.2915 124.831 29.4506 125.002 29.6643C125.173 29.878 125.279 30.1369 125.305 30.4095C125.69 30.4364 126.428 31.1092 126.459 31.9703C126.92 32.497 126.843 33.435 126.647 33.8925C126.09 35.1995 124.871 36.1222 123.222 38.1674L122.311 40.3702L116.929 38.5979Z" fill="#FCA886"/>
<path d="M125.978 31.0207C125.817 30.7768 125.572 30.6004 125.29 30.5248H125.186V30.421C125.161 30.1761 125.067 29.9435 124.914 29.7502C124.762 29.5569 124.557 29.4109 124.325 29.3292H124.198L124.221 29.2023C124.244 29.1199 124.298 29.0495 124.371 29.0063C124.48 28.9532 124.598 28.9222 124.719 28.915C124.84 28.9077 124.961 28.9244 125.075 28.964C125.594 29.0831 125.663 28.8256 125.663 28.814C125.948 27.8991 124.894 27.3455 124.833 27.3224C124.505 27.1931 124.148 27.1562 123.801 27.2159C123.454 27.2755 123.13 27.4294 122.865 27.6607C122.04 28.3802 121.282 29.1728 120.6 30.0288L120.423 29.8828C121.118 29.0137 121.89 28.2095 122.73 27.48C123.029 27.2237 123.391 27.0527 123.778 26.9851C124.166 26.9174 124.565 26.9556 124.933 27.0956C124.96 27.0956 126.236 27.7684 125.898 28.8602C125.869 28.9664 125.8 29.0573 125.705 29.1139C125.603 29.1696 125.491 29.2038 125.375 29.2144C125.26 29.225 125.143 29.2117 125.033 29.1754C124.882 29.1349 124.722 29.1349 124.571 29.1754C124.79 29.2918 124.98 29.4559 125.127 29.6555C125.274 29.8551 125.375 30.0852 125.421 30.3287C125.731 30.4318 126 30.6311 126.19 30.8977L125.978 31.0207Z" fill="#5E1F3C"/>
<path d="M119.637 30.8795L118.99 31.7497L119.176 31.8873L119.822 31.017L119.637 30.8795Z" fill="#5E1F3C"/>
<path d="M124.606 29.1323L124.483 28.9365L124.544 29.0363L124.483 28.9365C124.573 28.8598 124.644 28.7635 124.691 28.6549C124.737 28.5463 124.758 28.4285 124.752 28.3105H124.982C124.99 28.4677 124.96 28.6245 124.895 28.7676C124.829 28.9107 124.73 29.0359 124.606 29.1323Z" fill="#5E1F3C"/>
<path d="M124.717 30.8663L124.541 30.7204C124.73 30.5026 124.987 30.3539 125.27 30.298L125.324 30.5207C125.089 30.5649 124.875 30.6866 124.717 30.8663Z" fill="#5E1F3C"/>
<path d="M125.82 32.5116L125.648 32.3618C125.859 32.1216 126.135 31.947 126.442 31.8588L126.508 32.0777C126.244 32.158 126.006 32.3079 125.82 32.5116Z" fill="#5E1F3C"/>
<path d="M123.683 29.6438L123.514 29.4825C123.732 29.2734 124.01 29.1389 124.309 29.0985L124.351 29.3251C124.1 29.3571 123.866 29.4688 123.683 29.6438Z" fill="#5E1F3C"/>
<path d="M137.737 30.1365H137.507C137.504 29.2584 137.693 28.3904 138.062 27.5934C138.431 26.7964 138.969 26.0898 139.64 25.5233L139.775 25.7078C139.133 26.2535 138.619 26.9324 138.267 27.6973C137.915 28.4622 137.734 29.2946 137.737 30.1365Z" fill="#5E1F3C"/>
</svg>
