<svg width="68" height="72" viewBox="0 0 68 72" fill="none" xmlns="http://www.w3.org/2000/svg">
<path d="M66.7896 31.4848C66.3153 30.2992 65.604 29.3507 64.2603 29.2717C63.786 29.2717 63.2327 29.4298 62.6795 29.5088C62.6795 29.2717 62.6795 29.1136 62.6795 28.8765C62.7585 27.2166 62.8375 25.5568 62.8375 23.8969C62.9956 19.4706 62.2842 15.2814 59.992 11.4084C57.3837 6.9031 53.4317 3.97858 48.5311 2.31872C48.0569 2.16064 47.7407 2.00256 47.5826 1.52832C46.7922 -0.210584 44.5791 -0.526738 43.3144 0.895998C43.1564 1.05408 42.9192 1.13312 42.7611 1.21216C40.7851 1.2912 38.73 1.29119 36.754 1.44927C35.8846 1.52831 35.0151 1.76545 34.1457 2.08161C33.3553 2.31873 32.6439 2.63489 31.7745 2.39777C31.0631 2.23969 30.3517 2.47681 30.0355 3.10913C29.7984 3.8205 29.2452 4.05763 28.6919 4.37379C28.1386 4.68996 27.6643 5.00611 27.1901 5.40132C26.6368 5.87556 26.1625 6.03364 25.3721 5.79652C24.3446 5.48036 23.159 6.11269 22.6848 7.14022C22.2105 8.00968 22.3686 9.27433 23.08 9.9857C23.8704 10.7761 25.135 11.0132 26.0835 10.539C26.4787 10.3019 26.7158 10.3809 27.032 10.618C32.1697 14.0958 36.4379 18.5221 39.7576 23.7388C42.0498 27.2957 43.7887 31.0896 44.9743 35.1207C45.0533 35.4369 45.2114 35.674 44.8162 35.9902C42.6821 37.4129 42.524 40.3374 44.342 42.0763C44.5791 42.3134 44.6581 42.5506 44.5 42.8667C44.1048 43.6571 43.7096 44.5266 43.3144 45.317C40.3899 51.166 36.5169 56.2246 31.6164 60.6509C31.1421 61.1252 30.7469 61.2833 29.9565 60.9671C28.6128 60.4138 27.032 60.9671 26.2416 62.1527C25.4512 63.3383 25.6093 64.8401 26.4787 65.8676C27.4272 66.9742 29.087 67.2904 30.3517 66.579C30.6679 66.4209 30.905 66.4209 31.2212 66.658C33.5133 68.476 36.0427 69.9778 39.0462 70.452C39.5205 70.531 39.8366 70.6891 40.1528 71.0843C40.7061 71.8747 41.4965 72.1119 42.3659 71.9538C43.2354 71.7957 43.9467 71.3214 44.2629 70.373C44.3419 70.1358 44.5791 69.8987 44.8162 69.8197C46.7922 69.0293 48.6102 68.0017 50.191 66.658C55.5658 62.2317 59.2016 56.6989 61.1777 50.0594C61.2567 49.9013 61.4148 49.6642 61.5729 49.5852C62.5214 49.3481 63.1537 48.8738 63.707 48.1625C64.9716 46.5816 65.604 44.6847 65.9992 42.7086C66.3944 40.4164 66.7105 38.1243 66.9477 35.8321C67.1848 34.4093 67.3429 32.9076 66.7896 31.4848ZM47.2665 3.97859C47.5826 3.66243 47.8198 3.82051 48.0569 3.97859C52.6413 5.55941 56.1981 8.32583 58.6484 12.515C59.913 14.7281 60.6244 17.2575 60.8615 19.7868C61.0196 21.9209 61.0196 24.055 61.0196 26.2681C61.0196 26.4262 61.0196 26.5843 60.9405 26.7424C60.8615 26.7424 60.8615 26.7424 60.7825 26.7424C60.4663 26.1891 60.1501 25.6358 59.834 25.0825C57.5418 20.8934 54.6173 17.2575 51.1395 14.0168C50.9024 13.7797 50.7443 13.5425 50.8233 13.1473C51.1395 11.8827 50.3491 10.618 49.0844 10.1438C48.6892 9.98569 48.5311 9.82761 48.373 9.43241C47.8988 7.93063 47.4245 6.34982 46.9503 4.84804C46.9503 4.53188 47.0294 4.29475 47.2665 3.97859ZM49.0054 51.3241C48.8473 51.4822 48.6892 51.4822 48.4521 51.5612C48.3731 51.3241 48.215 51.166 48.215 50.9289C48.4521 48.3205 48.3731 45.6331 48.0569 43.0248C48.0569 42.8667 48.215 42.5506 48.373 42.4715C50.9024 40.9697 51.1395 37.8081 48.8473 35.9902C48.6892 35.9111 48.6102 35.595 48.6102 35.3578C49.2425 32.4333 49.7958 29.5088 49.9539 26.5052C50.1119 23.2646 50.191 20.1029 49.7958 16.8622C49.7167 16.309 49.6377 15.6766 49.6377 15.1234C49.7167 15.1234 49.7167 15.0443 49.7958 15.0443C50.3491 15.5976 50.9023 16.1509 51.4556 16.7042C55.2496 20.5772 58.1741 25.0035 60.3872 29.904C60.7825 30.6944 60.7034 31.4848 60.4663 32.2752C58.3322 39.626 54.4592 45.9493 49.0054 51.3241ZM34.857 3.50434C37.2283 2.87201 39.5995 2.55585 42.0498 2.71393C42.445 2.71393 42.6821 2.87202 42.8402 3.26723C43.1563 4.29476 43.9468 4.76901 44.8953 4.92709C45.1324 5.00613 45.3695 5.16421 45.4485 5.32229C46.0018 6.90311 46.397 8.40488 46.9503 9.9857C46.9503 10.0647 46.9503 10.0647 46.8713 10.3019C42.9983 7.45639 38.8091 5.40133 34.3038 3.66243C34.5409 3.66243 34.699 3.58338 34.857 3.50434ZM38.1768 18.6802C35.1732 14.9653 31.7745 11.8036 27.8224 9.11625C27.032 8.56296 26.953 7.37735 27.8224 6.82407C28.5338 6.34982 29.2451 5.87556 30.0355 5.40132C30.1936 5.32227 30.5098 5.32229 30.7469 5.32229C31.2212 5.24325 31.6954 5.24324 32.1697 5.1642C32.4068 5.1642 32.7229 5.00612 32.9601 5.08516C37.3864 6.50789 41.5755 8.56297 45.3695 11.2504C45.7647 11.4875 45.9228 11.7246 45.8437 12.2779C45.6856 13.4635 46.4761 14.6491 47.5826 15.0443C47.9778 15.1234 48.0569 15.3605 48.1359 15.6766C48.6892 19.9448 48.7682 24.134 48.215 28.4022C47.9778 30.4573 47.5036 32.5914 47.1084 34.6465C47.1084 34.8045 47.0293 34.9626 46.9503 35.1207C46.8713 35.1207 46.7922 35.1207 46.7922 35.1207C46.4761 34.0932 46.1599 33.0656 45.7647 32.0381C44.0258 27.2166 41.4965 22.7113 38.1768 18.6802ZM46.2389 42.8667C46.318 42.8667 46.318 42.8667 46.397 42.9457C46.4761 43.1829 46.5551 43.42 46.5551 43.7362C46.5551 46.1074 46.6341 48.4786 46.6341 50.8498C46.6341 51.166 46.476 51.3241 46.1599 51.4822C44.5791 52.1145 43.8677 53.3792 44.1839 55.1181C44.1839 55.2761 44.1048 55.5923 43.9468 55.7504C40.7851 58.0426 37.3864 59.9396 33.7505 61.3623C33.6714 61.3623 33.5924 61.3623 33.5133 61.4413L33.4343 61.3623C38.9672 55.9085 43.2354 49.8223 46.2389 42.8667ZM42.445 66.8952C42.3659 67.0532 42.1288 67.2113 41.8917 67.2113C41.0222 67.2904 40.3899 67.6856 39.9157 68.476C39.8366 68.6341 39.5995 68.7131 39.5205 68.7921C37.7025 68.476 36.1217 67.8437 34.6199 66.9742C33.7505 66.5 33.0391 65.8676 32.1697 65.3143C31.6954 64.9982 31.8535 64.603 31.9325 64.1287C32.0116 63.7335 32.1697 63.4964 32.5649 63.3383C36.9912 61.9156 41.1013 59.7024 44.8953 57.015C45.0533 56.936 45.2904 56.857 45.4485 56.857C45.4485 57.0941 45.6066 57.3312 45.5276 57.4893C44.8952 60.73 43.8677 63.8126 42.445 66.8952ZM64.8926 39.7051C64.5764 41.3649 64.2603 43.1038 63.707 44.7637C63.3908 45.7912 62.6004 46.6607 62.0471 47.5301C61.9681 47.6882 61.7309 47.7673 61.5729 47.9253C61.1777 47.1349 60.6244 47.8463 60.1501 47.7672C60.0711 47.7672 59.9921 47.9253 59.913 48.0834C58.8064 53.6163 56.04 58.2797 52.246 62.4689C50.1119 64.8401 47.6617 66.8161 44.7372 68.0017C44.5 68.0808 44.2629 68.1598 44.0258 68.2388C43.9468 68.2388 43.9467 68.1598 43.8677 68.1598C43.9467 67.9227 44.0258 67.6856 44.1048 67.4484C45.4485 64.5239 46.4761 61.5204 47.1874 58.3587C47.2665 58.0426 46.9503 57.7264 46.7922 57.4103V57.3312C46.9503 57.3312 47.1084 57.4103 47.2665 57.4103C48.8473 57.4103 50.191 56.0665 50.191 54.4857C50.191 54.0905 50.1119 53.6953 49.9539 53.3792C49.8748 53.063 50.0329 52.8259 50.3491 52.5097C55.0125 47.9253 58.5693 42.6296 60.9405 36.4644C61.3358 35.4369 61.6519 34.4093 62.0471 33.4608C62.3633 32.8285 62.6794 32.1962 63.1537 31.5639C63.786 30.7735 64.7345 30.9315 65.1297 31.88C65.3668 32.3543 65.4459 32.9866 65.4459 33.5399C65.5249 35.5949 65.2878 37.65 64.8926 39.7051Z" fill="white"/>
<path d="M33.9876 27.1376C33.9876 24.2921 31.8535 22.079 29.0871 22.079C26.2416 22.079 23.9494 24.2131 23.9494 26.9795C23.9494 29.746 26.1625 32.1172 28.929 32.1172C31.6954 32.1172 33.9085 29.904 33.9876 27.1376Z" fill="#5E1F3C"/>
<path d="M17.1519 39.3889C14.3854 39.3889 12.0933 41.6021 12.0933 44.3685C12.0933 47.1349 14.3064 49.4271 17.0728 49.4271C19.9973 49.4271 22.1314 47.293 22.1314 44.4476C22.2895 41.6021 19.7602 39.3889 17.1519 39.3889Z" fill="#5E1F3C"/>
<path d="M29.2451 45.0008C29.2451 46.8978 30.4308 48.1624 32.2487 48.1624C34.1457 48.1624 35.4104 46.8978 35.4104 45.0008C35.4104 43.1829 34.1457 41.8392 32.3277 41.8392C30.5098 41.8392 29.2451 43.1829 29.2451 45.0008Z" fill="#5E1F3C"/>
<path d="M7.35083 18.8383C5.53289 18.8383 4.26822 20.1029 4.26822 21.9999C4.26822 23.8178 5.53289 25.0825 7.35083 25.1615C9.08973 25.1615 10.4334 23.8178 10.4334 21.9999C10.4334 20.1029 9.24782 18.8383 7.35083 18.8383Z" fill="#5E1F3C"/>
<path d="M19.6022 20.0239C21.0249 20.0239 21.9734 19.1544 21.9734 17.7317C21.9734 16.388 21.1039 15.4395 19.7602 15.3605C18.4165 15.3605 17.468 16.2299 17.389 17.6527C17.31 18.9964 18.1794 20.0239 19.6022 20.0239Z" fill="#5E1F3C"/>
<path d="M7.98313 52.4307C6.63943 52.4307 5.69095 53.3792 5.69095 54.7229C5.69095 56.1456 6.63943 57.0151 7.98313 57.0151C9.40587 57.0151 10.2753 56.0666 10.2753 54.7229C10.2753 53.3001 9.40587 52.4307 7.98313 52.4307Z" fill="#5E1F3C"/>
<path d="M2.29218 34.2512C0.948486 34.2512 0 35.1997 0 36.5434C0 37.8871 0.869445 38.8356 2.29218 38.8356C3.71492 38.8356 4.58439 37.9662 4.58439 36.5434C4.50535 35.1997 3.63588 34.2512 2.29218 34.2512Z" fill="#5E1F3C"/>
</svg>
